<?xml version='1.0' encoding='utf-8'?>
<svg xmlns:xlink="http://www.w3.org/1999/xlink" xmlns="http://www.w3.org/2000/svg" width="210mm" height="297mm" viewBox="0 0 210 297" version="1.1" id="svg8"> <defs id="defs2"> <linearGradient id="linearGradient2185"> <stop style="stop-color:#5a6262;stop-opacity:1" offset="0" id="stop2181"/> <stop style="stop-color:#d1d3d3;stop-opacity:1" offset="1" id="stop2183"/> </linearGradient> <linearGradient id="linearGradient2172"> <stop style="stop-color:#b6bcbc;stop-opacity:1" offset="0" id="stop2168"/> <stop style="stop-color:#919999;stop-opacity:1" offset="1" id="stop2170"/> </linearGradient> <linearGradient id="linearGradient1656"> <stop style="stop-color:#f9f9f9;stop-opacity:1;" offset="0" id="stop1652"/> <stop style="stop-color:#dbdbdb;stop-opacity:1" offset="1" id="stop1654"/> </linearGradient> <linearGradient id="linearGradient1632"> <stop style="stop-color:#eae2e0;stop-opacity:1" offset="0" id="stop1628"/> <stop style="stop-color:#eae1df;stop-opacity:1" offset="1" id="stop1630"/> </linearGradient> <linearGradient id="linearGradient1298"> <stop id="stop1294" offset="0" style="stop-color:#3c3d36;stop-opacity:1;"/> <stop id="stop1296" offset="1" style="stop-color:#b6b8b0;stop-opacity:1"/> </linearGradient> <linearGradient id="linearGradient1125"> <stop id="stop1123" offset="0" style="stop-color:#f2f1f1;stop-opacity:1;"/> <stop id="stop1121" offset="1" style="stop-color:#cac6c6;stop-opacity:1"/> </linearGradient> <linearGradient id="linearGradient1101"> <stop style="stop-color:#f2f1f1;stop-opacity:1;" offset="0" id="stop1097"/> <stop style="stop-color:#cac6c6;stop-opacity:1" offset="1" id="stop1099"/> </linearGradient> <linearGradient id="linearGradient1073"> <stop id="stop1069" offset="0" style="stop-color:#f2f1f1;stop-opacity:1;"/> <stop id="stop1071" offset="1" style="stop-color:#c0bcbc;stop-opacity:1"/> </linearGradient> <linearGradient id="linearGradient1021"> <stop style="stop-color:#f2f1f1;stop-opacity:1;" offset="0" id="stop1017"/> <stop style="stop-color:#cac6c6;stop-opacity:1" offset="1" id="stop1019"/> </linearGradient> <linearGradient id="linearGradient965"> <stop style="stop-color:#a5a79d;stop-opacity:1" offset="0" id="stop963"/> <stop style="stop-color:#3c3d36;stop-opacity:1;" offset="1" id="stop961"/> </linearGradient> <linearGradient id="linearGradient982"> <stop style="stop-color:#3c3d36;stop-opacity:1;" offset="0" id="stop978"/> <stop style="stop-color:#a5a79d;stop-opacity:1" offset="1" id="stop980"/> </linearGradient> <linearGradient id="linearGradient968"> <stop style="stop-color:#4f4e57;stop-opacity:1;" offset="0" id="stop964"/> <stop style="stop-color:#72717e;stop-opacity:1" offset="1" id="stop966"/> </linearGradient> <linearGradient id="linearGradient944"> <stop style="stop-color:#7a7776;stop-opacity:1;" offset="0" id="stop940"/> </linearGradient> <linearGradient id="linearGradient934"> <stop style="stop-color:#020202;stop-opacity:1" offset="0" id="stop930"/> <stop style="stop-color:#b4b4b4;stop-opacity:1" offset="1" id="stop932"/> </linearGradient> <linearGradient id="linearGradient904"> <stop style="stop-color:#fef7e3;stop-opacity:1" offset="0" id="stop900"/> <stop style="stop-color:#ffaa7d;stop-opacity:1" offset="1" id="stop902"/> </linearGradient> <linearGradient id="linearGradient821"> <stop style="stop-color:#f0f0d8;stop-opacity:1" offset="0" id="stop817"/> <stop style="stop-color:#cfcfcf;stop-opacity:1" offset="1" id="stop819"/> </linearGradient> <radialGradient xlink:href="#linearGradient821" id="radialGradient823" cx="-0.2645874" cy="155.97708" fx="-0.2645874" fy="155.97708" r="67.73333" gradientTransform="matrix(1.7618361,0,0,1.6912021,-12.857347,-127.68946)" gradientUnits="userSpaceOnUse"/> <radialGradient xlink:href="#linearGradient904" id="radialGradient906" cx="-60.748047" cy="602.95807" fx="-60.748047" fy="602.95807" r="192.74805" gradientTransform="matrix(0.29865434,0,0,0.16746332,1.0247777,66.036483)" gradientUnits="userSpaceOnUse"/> <linearGradient xlink:href="#linearGradient934" id="linearGradient936" x1="-74.256447" y1="143.77724" x2="-63.987724" y2="136.65015" gradientUnits="userSpaceOnUse" gradientTransform="matrix(1.3047749,0,0,1.3047749,3.8536526,-41.510796)"/> <linearGradient xlink:href="#linearGradient944" id="linearGradient946" x1="-72.63179" y1="110.90237" x2="-72.63179" y2="115.85415" gradientUnits="userSpaceOnUse" gradientTransform="matrix(1.3047749,0,0,1.3047749,3.8536526,-41.510796)"/> <linearGradient xlink:href="#linearGradient968" id="linearGradient970" x1="18.577904" y1="189.0802" x2="-3.0325146" y2="155.81105" gradientUnits="userSpaceOnUse"/> <linearGradient xlink:href="#linearGradient1298" id="linearGradient984" x1="-49.071335" y1="90.274025" x2="-6.7573361" y2="111.9101" gradientUnits="userSpaceOnUse"/> <linearGradient xlink:href="#linearGradient982" id="linearGradient996" gradientUnits="userSpaceOnUse" x1="-46.00423" y1="85.132202" x2="-39.759197" y2="88.863319"/> <linearGradient xlink:href="#linearGradient965" id="linearGradient953" x1="-0.72312772" y1="82.849258" x2="20.706627" y2="87.979546" gradientUnits="userSpaceOnUse"/> <linearGradient xlink:href="#linearGradient965" id="linearGradient979" x1="-16.342237" y1="75.696739" x2="-4.8193631" y2="75.696739" gradientUnits="userSpaceOnUse"/> <linearGradient xlink:href="#linearGradient965" id="linearGradient1001" x1="55.966801" y1="143.55768" x2="76.558929" y2="143.55768" gradientUnits="userSpaceOnUse"/> <linearGradient xlink:href="#linearGradient1021" id="linearGradient1023" x1="-46.172612" y1="86.021466" x2="13.214402" y2="86.021466" gradientUnits="userSpaceOnUse"/> <linearGradient xlink:href="#linearGradient1021" id="linearGradient1031" x1="-23.561159" y1="72.57341" x2="-17.318254" y2="74.905357" gradientUnits="userSpaceOnUse"/> <linearGradient xlink:href="#linearGradient1021" id="linearGradient1041" x1="-64.207039" y1="131.55743" x2="-33.113689" y2="131.55743" gradientUnits="userSpaceOnUse"/> <linearGradient xlink:href="#linearGradient1021" id="linearGradient1057" x1="-100.43959" y1="105.52519" x2="-82.714508" y2="105.52519" gradientUnits="userSpaceOnUse"/> <linearGradient xlink:href="#linearGradient1073" id="linearGradient1067" x1="-93.069817" y1="109.43349" x2="-72.793007" y2="162.44649" gradientUnits="userSpaceOnUse"/> <linearGradient xlink:href="#linearGradient1101" id="linearGradient1095" x1="5.0195427" y1="156.68828" x2="30.196655" y2="134.1461" gradientUnits="userSpaceOnUse"/> <linearGradient xlink:href="#linearGradient1125" id="linearGradient1119" x1="29.337639" y1="120.31286" x2="69.507401" y2="120.31286" gradientUnits="userSpaceOnUse"/> <linearGradient xlink:href="#linearGradient1125" id="linearGradient1139" x1="38.216949" y1="169.58879" x2="60.325684" y2="169.58879" gradientUnits="userSpaceOnUse"/> <linearGradient xlink:href="#linearGradient1632" id="linearGradient1626" x1="-100.05078" y1="100.33588" x2="-112.01816" y2="35.69751" gradientUnits="userSpaceOnUse"/> <linearGradient xlink:href="#linearGradient1656" id="linearGradient1658" x1="-103.11357" y1="93.280884" x2="-109.26556" y2="44.252468" gradientUnits="userSpaceOnUse"/> <linearGradient xlink:href="#linearGradient2172" id="linearGradient2174" x1="-8.40798" y1="254.94664" x2="-8.40798" y2="188.1097" gradientUnits="userSpaceOnUse" gradientTransform="scale(3.7795275)"/> <radialGradient xlink:href="#linearGradient2185" id="radialGradient2187" cx="-11.212776" cy="197.1843" fx="-11.212776" fy="197.1843" r="60.461048" gradientTransform="matrix(0.91636361,0,0,0.09454546,-5.667153,177.66198)" gradientUnits="userSpaceOnUse"/> </defs> <metadata id="metadata5"> </metadata> <g id="layer2"> <rect style="color:#000000;clip-rule:nonzero;display:inline;overflow:visible;visibility:visible;opacity:1;isolation:auto;mix-blend-mode:normal;color-interpolation:sRGB;color-interpolation-filters:linearRGB;solid-color:#000000;solid-opacity:1;vector-effect:none;fill:url(#radialGradient823);fill-opacity:1;fill-rule:nonzero;stroke:none;stroke-width:0.2;stroke-linecap:round;stroke-linejoin:round;stroke-miterlimit:4;stroke-dasharray:0.19999998, 0.79999998000000005;stroke-dashoffset:0;stroke-opacity:1;color-rendering:auto;image-rendering:auto;shape-rendering:auto;text-rendering:auto;enable-background:accumulate" id="rect815" width="238.67006" height="229.1015" x="-132.65854" y="21.548565"/> <ellipse style="color:#000000;clip-rule:nonzero;display:inline;overflow:visible;visibility:visible;opacity:0.58399999;isolation:auto;mix-blend-mode:normal;color-interpolation:sRGB;color-interpolation-filters:linearRGB;solid-color:#000000;solid-opacity:1;vector-effect:none;fill:url(#radialGradient2187);fill-opacity:1;fill-rule:nonzero;stroke:none;stroke-width:0.19999999;stroke-linecap:round;stroke-linejoin:round;stroke-miterlimit:4;stroke-dasharray:0.19999999, 0.79999998;stroke-dashoffset:0;stroke-opacity:1;color-rendering:auto;image-rendering:auto;shape-rendering:auto;text-rendering:auto;enable-background:accumulate" id="path2179" cx="-15.942132" cy="196.30486" rx="55.404305" ry="5.7163181"/> <path style="color:#000000;clip-rule:nonzero;display:inline;overflow:visible;visibility:visible;opacity:0.216;isolation:auto;mix-blend-mode:normal;color-interpolation:sRGB;color-interpolation-filters:linearRGB;solid-color:#000000;solid-opacity:1;vector-effect:none;fill:#919999;fill-opacity:1;fill-rule:nonzero;stroke:none;stroke-width:0.2;stroke-linecap:round;stroke-linejoin:round;stroke-miterlimit:4;stroke-dasharray:0.20000001, 0.79999995999999984;stroke-dashoffset:0;stroke-opacity:1;color-rendering:auto;image-rendering:auto;shape-rendering:auto;text-rendering:auto;enable-background:accumulate" d="m -15.506406,68.416745 c -4.793042,0.06979 -12.774527,4.901761 -10.25214,10.190951 -7.560991,0.07952 -13.413016,2.174247 -17.361772,3.354954 -3.948756,1.180706 -5.994242,4.090271 -5.942157,7.354109 -3.108494,2.491258 -5.38656,9.886483 -1.469644,12.601651 3.916917,2.71518 12.542287,2.8173 7.614303,11.80714 -13.987292,5.36213 -23.14023,15.19671 -27.292066,26.00773 -0.445443,-0.55889 -0.855673,-0.87144 -1.194792,-0.85901 -4.30045,0.15779 -16.765666,-23.28004 -12.773202,-27.61773 1.168955,-1.27003 4.142657,-4.83311 2.761774,-6.55921 -1.380891,-1.72611 -16.915863,-1.03567 -18.987188,0 -2.07133,1.03566 -3.45222,3.79743 2.416547,7.59487 5.868769,3.79745 6.414561,40.89223 8.630542,47.29537 2.416234,6.98178 21.058522,13.46365 21.058522,13.46365 0.125768,-0.17498 0.247656,-0.35305 0.365449,-0.53401 8.827201,15.97281 28.758208,27.11608 51.935636,27.11608 20.6507391,0 38.725454,-8.84572 48.664794,-22.07194 5.636956,3.54244 20.896653,-0.99792 34.706242,-10.3789 18.45825,-12.53886 7.784286,-51.55241 -12.427981,-54.1998 -10.268936,-1.34502 -21.704725,9.11276 -24.165517,10.70187 -0.733673,0.47379 -1.331478,0.96104 -1.822528,1.45236 -4.124457,-3.79629 -9.398513,-8.85814 -15.952343,-11.41133 -6.1174826,-11.0826 4.162631,-8.56045 8.019505,-11.80714 C 24.882451,98.671732 21.695717,91.841828 18.054395,89.357237 17.960515,86.048834 15.825606,83.110474 11.868036,81.96265 7.9104658,80.814825 2.1302388,78.81466 -5.2542661,78.605673 -3.2698457,72.883231 -10.713364,68.346957 -15.506406,68.416745 Z m 67.63378,53.567965 c 0.890413,-0.0103 1.826937,0.0885 2.819087,0.31892 7.91681,1.83827 17.660029,21.59251 12.427981,31.7604 -5.080289,9.87297 -19.834505,15.8012 -29.199551,13.70908 1.699043,-4.32701 2.617481,-8.9317 2.617481,-13.70908 -0.01433,-8.28504 -1.882735,-15.668 -5.933497,-21.95462 5.993901,-2.98419 10.159501,-10.04264 17.268499,-10.1247 z" id="path840"/> <path style="color:#000000;clip-rule:nonzero;display:inline;overflow:visible;visibility:visible;opacity:1;isolation:auto;mix-blend-mode:normal;color-interpolation:sRGB;color-interpolation-filters:linearRGB;solid-color:#000000;solid-opacity:1;vector-effect:none;fill:url(#radialGradient906);fill-opacity:1;fill-rule:nonzero;stroke:none;stroke-width:0.19999996;stroke-linecap:round;stroke-linejoin:round;stroke-miterlimit:4;stroke-dasharray:0.19999999, 0.79999995000000002;stroke-dashoffset:0;stroke-opacity:1;color-rendering:auto;image-rendering:auto;shape-rendering:auto;text-rendering:auto;enable-background:accumulate" d="m -92.289235,135.07684 c 1.139642,10.513 1.829036,21.3207 2.933034,24.51073 2.416234,6.98178 25.654847,21.18305 25.654847,21.18305 4.596325,7.7194 24.527332,18.86267 47.70476,18.86267 31.363682,0 56.78897,-20.40205 56.788966,-45.56926 -0.01212,-7.01482 -1.353503,-13.3831 -4.222223,-18.98719 H -68.032693 c -0.834291,1.50205 -1.561976,3.05448 -2.177189,4.65644 -0.445443,-0.55889 -0.855673,-0.87144 -1.194792,-0.85901 -1.099368,0.0403 -2.732705,-1.46704 -4.487881,-3.79743 z" id="path897"/> <g style="fill:#948c75;fill-opacity:1" id="g1568" transform="matrix(1,0,0,-1,0,295.79536)"> <path id="path1566" d="m -46.617633,138.85228 c -1.256459,0.0421 -2.218288,1.38854 -3.18017,1.38854 -1.099288,0 -3.737856,-1.09916 -4.617289,-1.09916 -0.879435,0 -3.737239,4.17753 -3.737239,4.17753 0.219858,1.31915 3.297906,1.53887 4.836914,1.09916 1.539009,-0.43973 -0.87943,-2.41846 0,-2.41846 0.879432,0 3.297388,0.21991 4.836398,0.43976 1.539007,0.21986 2.638599,3.73776 2.638599,3.73776 l 0.879531,-0.87953 c 0.879435,-0.87943 0.439333,-5.93612 -1.099675,-6.37584 -0.192376,-0.055 -0.377576,-0.0758 -0.557069,-0.0698 z m 4.641059,1.53892 c -0.179494,-0.006 -0.365213,0.0148 -0.557589,0.0698 -1.539007,0.43972 -1.978591,5.49641 -1.099158,6.37584 l 0.793234,0.79323 c -0.928807,0.33074 -2.599484,1.27455 -3.404444,1.3901 -0.522817,0.0751 -1.114391,-0.31242 -1.752346,-0.57516 0.869868,-0.39315 1.53348,-0.87364 1.54409,-1.34359 0,0 -2.942762,-3.20648 -3.691247,-3.09903 -0.748485,0.10744 -2.859508,1.36535 -3.795117,1.49965 -0.935604,0.13432 -2.086314,-1.22788 -3.342431,-0.66559 -0.03051,0.0137 -0.0591,0.0316 -0.08785,0.0496 0.07102,-0.23515 0.08534,-0.44547 0.0078,-0.60772 0,0 -4.073999,-1.53102 -4.693254,-1.09709 -0.619257,0.43393 -1.934284,2.50961 -2.708362,3.05201 -0.774062,0.54243 -2.416283,-0.15331 -3.283003,0.91571 -0.866428,1.06925 1.318771,4.84641 2.37195,5.03173 2.364912,0.55089 0.234617,-0.92619 1.565794,-2.27583 0.975212,-0.9142 2.070507,-3.73481 2.689759,-4.16874 0.61926,-0.43393 -0.986472,3.33743 0.314193,2.88768 0.811546,-0.28062 2.260563,-1.49877 3.115056,-2.62723 -0.366247,1.50824 -0.07097,3.93415 0.551386,4.40025 1.861122,1.55965 0.627409,-0.72005 2.424658,-1.32292 1.282985,-0.37516 3.53446,-2.39678 4.282942,-2.50423 0.748485,-0.10745 -2.387282,2.53145 -1.02371,2.71766 0.374476,0.0511 0.943293,-0.007 1.568898,-0.13746 -0.524092,1.44276 -0.233355,4.25903 0.442351,4.76508 1.861119,1.55965 0.627409,-0.72056 2.424658,-1.32343 1.282985,-0.37516 3.534457,-2.39679 4.282942,-2.50424 0.748483,-0.10744 -2.387285,2.53145 -1.02371,2.71766 1.363573,0.18621 5.27553,-1.03634 5.301486,-2.18591 0,0 -0.732063,-0.79737 -1.558563,-1.58337 0.277212,-0.60799 0.649624,-1.13979 1.132748,-1.28106 1.282985,-0.37516 3.314316,-0.85786 4.062801,-0.96531 0.748485,-0.10744 -1.067985,1.87206 0.29559,2.05827 0.635836,0.0868 1.537343,0.009 2.322856,-0.21394 0.123473,0.63121 0.318225,1.13682 0.567407,1.32343 l 0.856276,0.64131 c 0,0 0.505534,-3.12853 1.788523,-3.50366 1.282986,-0.37516 3.314317,-0.85735 4.062801,-0.9648 0.748484,-0.10744 -1.067985,1.87206 0.295589,2.05827 0.56731,0.0775 1.346538,0.023 2.066024,-0.14728 0.09042,0.35252 0.202907,0.65275 0.339514,0.85421 -0.06181,1.37244 0.224782,2.90123 0.704867,3.26079 l 0.855761,0.64078 c 0,0 0.506049,-3.12801 1.789038,-3.50314 1.282985,-0.37516 3.314317,-0.85787 4.062801,-0.96532 0.700844,-0.1006 -0.846654,1.62855 0.07286,2.00195 -0.254091,0.0953 -0.490261,0.17216 -0.673344,0.19844 -0.935604,0.13431 -2.086312,-1.22789 -3.342431,-0.6656 -1.255966,0.56263 -1.012505,4.91936 -0.15658,5.56039 l 0.856279,0.6413 c 0,0 0.505532,-3.12853 1.788521,-3.50366 1.282985,-0.37516 3.314317,-0.85735 4.062801,-0.9648 0.748484,-0.10744 -1.067985,1.87206 0.295589,2.05827 1.363572,0.18621 3.9567479,-0.37695 3.9827027,-1.52652 0,0 -1.7120994,-1.86323 -2.8566727,-2.70009 0.151892,-0.1694 0.243323,-0.3587 0.248046,-0.56793 0,0 -0.755623,-0.82199 -1.598352,-1.62005 0.187017,-0.0224 0.373716,-0.0526 0.559139,-0.0884 0.121679,0.40687 0.27845,0.71837 0.467155,0.86713 l 0.976685,0.76998 c 0,0 0.6782476,-3.62224 2.1807452,-4.02146 1.5025018,-0.39922 3.8783109,-0.90174 4.751648,-1.00511 0.8733361,-0.10336 -1.2958053,2.14563 0.2842202,2.40141 1.5800228,0.25578 4.6108483,-0.32453 4.6741334,-1.66037 0,0 -3.3289883,-3.81218 -4.2023275,-3.70881 -0.8733373,0.10336 -3.3643883,1.50531 -4.4560586,1.63452 -1.0916742,0.12921 -2.3897719,-1.48832 -3.8664307,-0.87075 -0.428673,0.17928 -0.716197,0.73921 -0.889351,1.45521 -0.719676,-0.66274 -1.400449,-1.18423 -1.730644,-1.14515 -0.873337,0.10336 -3.364389,1.5048 -4.456059,1.63401 -0.937328,0.11093 -2.027365,-1.06209 -3.251481,-1.00614 -0.708513,-0.85385 -1.42464,-1.59525 -1.793689,-1.59525 -0.879433,0 -3.517999,1.09916 -4.617288,1.09916 -1.099294,0 -2.19823,-1.75902 -3.73724,-1.3193 -0.446677,0.12762 -0.797584,0.65002 -1.053682,1.34048 -0.636733,-0.74264 -1.252445,-1.34048 -1.584917,-1.34048 -0.879433,0 -3.517482,1.09916 -4.616773,1.09916 -0.961882,0 -1.923709,-1.34647 -3.180167,-1.38855 z m 6.697781,3.14761 c 0.438158,0 0.05738,0.4914 -0.244427,1.0387 -0.93517,0.41528 -2.153304,1.05094 -2.806031,1.14463 -0.874919,0.12561 -1.93815,-1.05714 -3.099554,-0.75137 0.379288,-0.51781 0.823648,-0.92227 1.313098,-0.99219 1.539012,-0.21985 3.957481,-0.43977 4.836914,-0.43977 z m 64.140272,0.21291 c -0.02752,-0.003 -0.05309,-0.002 -0.07648,0.001 -0.748482,0.10744 -2.859508,1.36535 -3.795116,1.49965 -0.935604,0.13432 -2.086312,-1.2284 -3.342432,-0.66611 -1.255965,0.56263 -1.012504,4.91987 -0.156579,5.5609 l 0.855762,0.64079 c 0,0 0.506049,-3.12801 1.789038,-3.50314 1.282985,-0.37517 3.314317,-0.85787 4.062802,-0.96532 0.484288,-0.0695 -0.102114,0.7333 -0.209291,1.36012 -0.671812,0.78807 -1.578539,2.09639 -2.170927,2.51148 -0.774063,0.54243 -2.416283,-0.15383 -3.283003,0.91519 -0.86643,1.06925 1.318771,4.84641 2.371948,5.03173 2.364911,0.55089 0.234617,-0.92619 1.565795,-2.27583 0.975212,-0.9142 2.070505,-3.7348 2.689759,-4.16873 0.619258,-0.43393 -0.985956,3.33742 0.314709,2.88767 1.300665,-0.44976 4.238477,-3.3076 3.742407,-4.34495 0,0 -0.615389,-0.23048 -1.400432,-0.48679 0.391391,-0.23936 0.648724,-0.5401 0.65681,-0.89814 0,0 -2.761665,-3.00919 -3.614767,-3.09955 z m -54.249402,0.0599 c -0.954669,0.40236 -2.338146,1.14921 -3.047875,1.25109 -0.446307,0.0641 -0.942601,-0.2126 -1.474845,-0.45837 0.245917,-0.2156 0.509399,-0.36637 0.788064,-0.40618 1.095758,-0.15653 2.620162,-0.30935 3.734656,-0.38654 z m 11.019999,1.02113 c 0.294434,0.0168 0.07277,0.44202 -0.135909,0.92863 -0.0075,4.2e-4 -0.01614,-0.001 -0.02325,0 -0.748484,0.10743 -2.859509,1.36535 -3.795117,1.49965 -0.549537,0.0789 -1.174865,-0.35436 -1.850533,-0.61495 0.27603,-0.39962 0.601682,-0.70466 0.979785,-0.80512 1.502502,-0.39922 3.878311,-0.90226 4.751648,-1.00563 0.02729,-0.003 0.05182,-0.004 0.07338,-0.003 z M 7.7594076,145.349 c -1.5979675,-0.0916 -3.6785669,4.53859 -3.137793,5.65857 l 0.5410523,1.11983 c 0,0 2.1961729,-2.95953 3.7217366,-2.66031 0.4463264,0.0875 0.9639686,0.20164 1.4934485,0.32401 -0.155226,0.16326 -0.304183,0.3086 -0.4345985,0.39998 -0.7740626,0.54243 -2.4162837,-0.15383 -3.2830037,0.91519 -0.8664299,1.06925 1.3187712,4.84641 2.3719483,5.03173 2.3649119,0.55089 0.2346172,-0.92619 1.5657959,-2.27583 0.734172,-0.68824 1.536329,-2.45628 2.152323,-3.47369 0.214597,0.0599 0.398217,0.11439 0.56224,0.16537 -0.06038,0.28223 -0.129991,0.5971 -0.177767,0.89555 -0.508771,0.43934 -1.043869,0.97935 -0.334863,1.47898 1.308362,0.922 4.286898,1.72765 4.928898,0.55449 0,0 -0.516551,-1.90812 -1.106909,-3.41013 0.570384,-0.72274 0.920315,-1.42387 0.722953,-1.83658 0,0 -4.073999,-1.53154 -4.693254,-1.09761 -0.205666,0.14412 -0.491219,0.47609 -0.805119,0.8661 -0.396769,-0.0393 -0.747713,-0.0939 -0.992704,-0.17932 -1.0379788,-0.362 -1.4964104,-2.38472 -3.0943844,-2.47633 z m -8.09459631,1.27279 c -0.17065643,-3.4e-4 -0.30189813,0.0228 -0.37930501,0.077 -0.61925798,0.43393 -1.93428578,2.51012 -2.70836178,3.05252 -0.7740629,0.54243 -2.4162837,-0.15383 -3.2830037,0.91519 -0.8664299,1.06925 1.3187712,4.84693 2.3719483,5.03225 2.3649119,0.55089 0.2346169,-0.9267 1.5657958,-2.27634 0.975211,-0.9142 2.07050527,-3.7343 2.68975826,-4.16823 0.61925895,-0.43393 -0.98595556,3.33692 0.31470946,2.88717 1.30066398,-0.44976 4.23847728,-3.30761 3.74240708,-4.34496 0,0 -3.11935342,-1.17222 -4.31394841,-1.1746 z m -42.17571929,0.42529 c -0.01397,0.16146 -0.02258,0.32536 -0.02636,0.49196 -0.0521,0.0115 -0.108759,0.0268 -0.170015,0.046 0.02766,-0.0849 0.07643,-0.23116 0.196371,-0.53796 z m 14.102497,2.86133 c -0.02683,0.0293 -0.04666,0.0634 -0.06304,0.0997 0.02109,-0.0332 0.04429,-0.0646 0.06304,-0.0997 z m -0.06304,0.0997 c -1.282274,2.01993 -6.800509,0.62588 -7.074504,0.73381 -1.387099,1.81415 -1.127799,4.83352 0.699699,6.2022 0,0 0.505531,-3.12853 1.788522,-3.50366 4.295545,-2.51698 3.861605,0.99419 4.358389,1.09348 1.363573,0.1862 3.956748,-0.37747 3.982703,-1.52704 -1.431521,0.85891 -4.161855,-2.09556 -3.754809,-2.99879 z" style="fill:#948c75;fill-opacity:1;fill-rule:evenodd;stroke:none;stroke-width:0.26458332px;stroke-linecap:butt;stroke-linejoin:miter;stroke-opacity:1"/> </g> <g id="g1564" style="fill:#f9cdad;fill-opacity:1"> <path style="fill:#f9cdad;fill-opacity:1;fill-rule:evenodd;stroke:none;stroke-width:0.26458332px;stroke-linecap:butt;stroke-linejoin:miter;stroke-opacity:1" d="m -46.617633,138.85228 c -1.256459,0.0421 -2.218288,1.38854 -3.18017,1.38854 -1.099288,0 -3.737856,-1.09916 -4.617289,-1.09916 -0.879435,0 -3.737239,4.17753 -3.737239,4.17753 0.219858,1.31915 3.297906,1.53887 4.836914,1.09916 1.539009,-0.43973 -0.87943,-2.41846 0,-2.41846 0.879432,0 3.297388,0.21991 4.836398,0.43976 1.539007,0.21986 2.638599,3.73776 2.638599,3.73776 l 0.879531,-0.87953 c 0.879435,-0.87943 0.439333,-5.93612 -1.099675,-6.37584 -0.192376,-0.055 -0.377576,-0.0758 -0.557069,-0.0698 z m 4.641059,1.53892 c -0.179494,-0.006 -0.365213,0.0148 -0.557589,0.0698 -1.539007,0.43972 -1.978591,5.49641 -1.099158,6.37584 l 0.793234,0.79323 c -0.928807,0.33074 -2.599484,1.27455 -3.404444,1.3901 -0.522817,0.0751 -1.114391,-0.31242 -1.752346,-0.57516 0.869868,-0.39315 1.53348,-0.87364 1.54409,-1.34359 0,0 -2.942762,-3.20648 -3.691247,-3.09903 -0.748485,0.10744 -2.859508,1.36535 -3.795117,1.49965 -0.935604,0.13432 -2.086314,-1.22788 -3.342431,-0.66559 -0.03051,0.0137 -0.0591,0.0316 -0.08785,0.0496 0.07102,-0.23515 0.08534,-0.44547 0.0078,-0.60772 0,0 -4.073999,-1.53102 -4.693254,-1.09709 -0.619257,0.43393 -1.934284,2.50961 -2.708362,3.05201 -0.774062,0.54243 -2.416283,-0.15331 -3.283003,0.91571 -0.866428,1.06925 1.318771,4.84641 2.37195,5.03173 2.364912,0.55089 0.234617,-0.92619 1.565794,-2.27583 0.975212,-0.9142 2.070507,-3.73481 2.689759,-4.16874 0.61926,-0.43393 -0.986472,3.33743 0.314193,2.88768 0.811546,-0.28062 2.260563,-1.49877 3.115056,-2.62723 -0.366247,1.50824 -0.07097,3.93415 0.551386,4.40025 1.861122,1.55965 0.627409,-0.72005 2.424658,-1.32292 1.282985,-0.37516 3.53446,-2.39678 4.282942,-2.50423 0.748485,-0.10745 -2.387282,2.53145 -1.02371,2.71766 0.374476,0.0511 0.943293,-0.007 1.568898,-0.13746 -0.524092,1.44276 -0.233355,4.25903 0.442351,4.76508 1.861119,1.55965 0.627409,-0.72056 2.424658,-1.32343 1.282985,-0.37516 3.534457,-2.39679 4.282942,-2.50424 0.748483,-0.10744 -2.387285,2.53145 -1.02371,2.71766 1.363573,0.18621 5.27553,-1.03634 5.301486,-2.18591 0,0 -0.732063,-0.79737 -1.558563,-1.58337 0.277212,-0.60799 0.649624,-1.13979 1.132748,-1.28106 1.282985,-0.37516 3.314316,-0.85786 4.062801,-0.96531 0.748485,-0.10744 -1.067985,1.87206 0.29559,2.05827 0.635836,0.0868 1.537343,0.009 2.322856,-0.21394 0.123473,0.63121 0.318225,1.13682 0.567407,1.32343 l 0.856276,0.64131 c 0,0 0.505534,-3.12853 1.788523,-3.50366 1.282986,-0.37516 3.314317,-0.85735 4.062801,-0.9648 0.748484,-0.10744 -1.067985,1.87206 0.295589,2.05827 0.56731,0.0775 1.346538,0.023 2.066024,-0.14728 0.09042,0.35252 0.202907,0.65275 0.339514,0.85421 -0.06181,1.37244 0.224782,2.90123 0.704867,3.26079 l 0.855761,0.64078 c 0,0 0.506049,-3.12801 1.789038,-3.50314 1.282985,-0.37516 3.314317,-0.85787 4.062801,-0.96532 0.700844,-0.1006 -0.846654,1.62855 0.07286,2.00195 -0.254091,0.0953 -0.490261,0.17216 -0.673344,0.19844 -0.935604,0.13431 -2.086312,-1.22789 -3.342431,-0.6656 -1.255966,0.56263 -1.012505,4.91936 -0.15658,5.56039 l 0.856279,0.6413 c 0,0 0.505532,-3.12853 1.788521,-3.50366 1.282985,-0.37516 3.314317,-0.85735 4.062801,-0.9648 0.748484,-0.10744 -1.067985,1.87206 0.295589,2.05827 1.363572,0.18621 3.9567479,-0.37695 3.9827027,-1.52652 0,0 -1.7120994,-1.86323 -2.8566727,-2.70009 0.151892,-0.1694 0.243323,-0.3587 0.248046,-0.56793 0,0 -0.755623,-0.82199 -1.598352,-1.62005 0.187017,-0.0224 0.373716,-0.0526 0.559139,-0.0884 0.121679,0.40687 0.27845,0.71837 0.467155,0.86713 l 0.976685,0.76998 c 0,0 0.6782476,-3.62224 2.1807452,-4.02146 1.5025018,-0.39922 3.8783109,-0.90174 4.751648,-1.00511 0.8733361,-0.10336 -1.2958053,2.14563 0.2842202,2.40141 1.5800228,0.25578 4.6108483,-0.32453 4.6741334,-1.66037 0,0 -3.3289883,-3.81218 -4.2023275,-3.70881 -0.8733373,0.10336 -3.3643883,1.50531 -4.4560586,1.63452 -1.0916742,0.12921 -2.3897719,-1.48832 -3.8664307,-0.87075 -0.428673,0.17928 -0.716197,0.73921 -0.889351,1.45521 -0.719676,-0.66274 -1.400449,-1.18423 -1.730644,-1.14515 -0.873337,0.10336 -3.364389,1.5048 -4.456059,1.63401 -0.937328,0.11093 -2.027365,-1.06209 -3.251481,-1.00614 -0.708513,-0.85385 -1.42464,-1.59525 -1.793689,-1.59525 -0.879433,0 -3.517999,1.09916 -4.617288,1.09916 -1.099294,0 -2.19823,-1.75902 -3.73724,-1.3193 -0.446677,0.12762 -0.797584,0.65002 -1.053682,1.34048 -0.636733,-0.74264 -1.252445,-1.34048 -1.584917,-1.34048 -0.879433,0 -3.517482,1.09916 -4.616773,1.09916 -0.961882,0 -1.923709,-1.34647 -3.180167,-1.38855 z m 6.697781,3.14761 c 0.438158,0 0.05738,0.4914 -0.244427,1.0387 -0.93517,0.41528 -2.153304,1.05094 -2.806031,1.14463 -0.874919,0.12561 -1.93815,-1.05714 -3.099554,-0.75137 0.379288,-0.51781 0.823648,-0.92227 1.313098,-0.99219 1.539012,-0.21985 3.957481,-0.43977 4.836914,-0.43977 z m 64.140272,0.21291 c -0.02752,-0.003 -0.05309,-0.002 -0.07648,0.001 -0.748482,0.10744 -2.859508,1.36535 -3.795116,1.49965 -0.935604,0.13432 -2.086312,-1.2284 -3.342432,-0.66611 -1.255965,0.56263 -1.012504,4.91987 -0.156579,5.5609 l 0.855762,0.64079 c 0,0 0.506049,-3.12801 1.789038,-3.50314 1.282985,-0.37517 3.314317,-0.85787 4.062802,-0.96532 0.484288,-0.0695 -0.102114,0.7333 -0.209291,1.36012 -0.671812,0.78807 -1.578539,2.09639 -2.170927,2.51148 -0.774063,0.54243 -2.416283,-0.15383 -3.283003,0.91519 -0.86643,1.06925 1.318771,4.84641 2.371948,5.03173 2.364911,0.55089 0.234617,-0.92619 1.565795,-2.27583 0.975212,-0.9142 2.070505,-3.7348 2.689759,-4.16873 0.619258,-0.43393 -0.985956,3.33742 0.314709,2.88767 1.300665,-0.44976 4.238477,-3.3076 3.742407,-4.34495 0,0 -0.615389,-0.23048 -1.400432,-0.48679 0.391391,-0.23936 0.648724,-0.5401 0.65681,-0.89814 0,0 -2.761665,-3.00919 -3.614767,-3.09955 z m -54.249402,0.0599 c -0.954669,0.40236 -2.338146,1.14921 -3.047875,1.25109 -0.446307,0.0641 -0.942601,-0.2126 -1.474845,-0.45837 0.245917,-0.2156 0.509399,-0.36637 0.788064,-0.40618 1.095758,-0.15653 2.620162,-0.30935 3.734656,-0.38654 z m 11.019999,1.02113 c 0.294434,0.0168 0.07277,0.44202 -0.135909,0.92863 -0.0075,4.2e-4 -0.01614,-0.001 -0.02325,0 -0.748484,0.10743 -2.859509,1.36535 -3.795117,1.49965 -0.549537,0.0789 -1.174865,-0.35436 -1.850533,-0.61495 0.27603,-0.39962 0.601682,-0.70466 0.979785,-0.80512 1.502502,-0.39922 3.878311,-0.90226 4.751648,-1.00563 0.02729,-0.003 0.05182,-0.004 0.07338,-0.003 z M 7.7594076,145.349 c -1.5979675,-0.0916 -3.6785669,4.53859 -3.137793,5.65857 l 0.5410523,1.11983 c 0,0 2.1961729,-2.95953 3.7217366,-2.66031 0.4463264,0.0875 0.9639686,0.20164 1.4934485,0.32401 -0.155226,0.16326 -0.304183,0.3086 -0.4345985,0.39998 -0.7740626,0.54243 -2.4162837,-0.15383 -3.2830037,0.91519 -0.8664299,1.06925 1.3187712,4.84641 2.3719483,5.03173 2.3649119,0.55089 0.2346172,-0.92619 1.5657959,-2.27583 0.734172,-0.68824 1.536329,-2.45628 2.152323,-3.47369 0.214597,0.0599 0.398217,0.11439 0.56224,0.16537 -0.06038,0.28223 -0.129991,0.5971 -0.177767,0.89555 -0.508771,0.43934 -1.043869,0.97935 -0.334863,1.47898 1.308362,0.922 4.286898,1.72765 4.928898,0.55449 0,0 -0.516551,-1.90812 -1.106909,-3.41013 0.570384,-0.72274 0.920315,-1.42387 0.722953,-1.83658 0,0 -4.073999,-1.53154 -4.693254,-1.09761 -0.205666,0.14412 -0.491219,0.47609 -0.805119,0.8661 -0.396769,-0.0393 -0.747713,-0.0939 -0.992704,-0.17932 -1.0379788,-0.362 -1.4964104,-2.38472 -3.0943844,-2.47633 z m -8.09459631,1.27279 c -0.17065643,-3.4e-4 -0.30189813,0.0228 -0.37930501,0.077 -0.61925798,0.43393 -1.93428578,2.51012 -2.70836178,3.05252 -0.7740629,0.54243 -2.4162837,-0.15383 -3.2830037,0.91519 -0.8664299,1.06925 1.3187712,4.84693 2.3719483,5.03225 2.3649119,0.55089 0.2346169,-0.9267 1.5657958,-2.27634 0.975211,-0.9142 2.07050527,-3.7343 2.68975826,-4.16823 0.61925895,-0.43393 -0.98595556,3.33692 0.31470946,2.88717 1.30066398,-0.44976 4.23847728,-3.30761 3.74240708,-4.34496 0,0 -3.11935342,-1.17222 -4.31394841,-1.1746 z m -42.17571929,0.42529 c -0.01397,0.16146 -0.02258,0.32536 -0.02636,0.49196 -0.0521,0.0115 -0.108759,0.0268 -0.170015,0.046 0.02766,-0.0849 0.07643,-0.23116 0.196371,-0.53796 z m 14.102497,2.86133 c -0.02683,0.0293 -0.04666,0.0634 -0.06304,0.0997 0.02109,-0.0332 0.04429,-0.0646 0.06304,-0.0997 z m -0.06304,0.0997 c -1.282274,2.01993 -6.800509,0.62588 -7.074504,0.73381 -1.387099,1.81415 -1.127799,4.83352 0.699699,6.2022 0,0 0.505531,-3.12853 1.788522,-3.50366 4.295545,-2.51698 3.861605,0.99419 4.358389,1.09348 1.363573,0.1862 3.956748,-0.37747 3.982703,-1.52704 -1.431521,0.85891 -4.161855,-2.09556 -3.754809,-2.99879 z" id="path1561"/> </g> <g style="stroke-width:1.82763386" transform="matrix(-0.50934877,0.19985755,0.19985755,0.50934877,-56.970715,30.449716)" id="g1604"> <path style="fill:#fbffe5;fill-rule:evenodd;stroke:none;stroke-width:0.48356143px;stroke-linecap:butt;stroke-linejoin:miter;stroke-opacity:1" d="m -10.553202,220.929 c 0,0 -2.198583,-3.95745 0.219859,-5.93617 3.0780171,-1.53901 4.8368841,2.6383 6.595751,3.73759 1.7588668,1.09929 2.5731254,-5.51229 7.0354674,-4.17731 4.431164,1.32566 0.7695836,3.10246 -0.2198585,4.61703 2.7297903,-0.0594 9.1864921,0.11441 9.8936251,4.83688 -8.8014244,3.44331 -7.4273592,-2.61835 -10.5532001,-0.87943 0,0 5.7163173,5.05674 4.1773088,7.03546 C 5.0567423,232.14178 1.7084845,232.97364 0,232.80136 c -3.1103218,-0.31364 -3.4689028,-7.16981 -3.737592,-7.69505 -1.7588669,0.21986 -3.7375922,7.25533 -7.035468,6.59575 -3.297875,-0.65957 -0.439716,-6.15603 -0.439716,-6.15603 -3.643779,1.08769 -6.405563,1.73774 -7.255326,-1.75887 1.539008,-2.61191 6.156033,-3.94757 7.9149,-2.85816 z" id="path1600"/> <path style="fill:#fbb88d;fill-opacity:1;fill-rule:evenodd;stroke:none;stroke-width:0.48356143px;stroke-linecap:butt;stroke-linejoin:miter;stroke-opacity:1" d="m -8.5744759,221.6985 c 0.8433626,2.497 2.6603159,1.59739 4.8368838,1.8688 1.5390085,0 5.9361757,-0.65957 5.4964589,-1.97872 -0.4397167,-1.31915 -8.7943342,-2.52838 -10.3333427,0.10992 z" id="path1602"/> </g> <path style="fill:#c1a075;fill-opacity:1;fill-rule:evenodd;stroke:none;stroke-width:0.26458332px;stroke-linecap:butt;stroke-linejoin:miter;stroke-opacity:1" d="m -46.223451,134.27755 c -1.256458,0.0421 -2.218288,1.38854 -3.18017,1.38854 -1.099288,0 -3.737856,-1.09915 -4.617288,-1.09915 -0.879436,0 -3.73724,4.17752 -3.73724,4.17752 0.219858,1.31915 3.297907,1.53888 4.836914,1.09916 1.53901,-0.43972 -0.87943,-2.41846 0,-2.41846 0.879433,0 3.297388,0.21992 4.836398,0.43977 1.539007,0.21986 2.6386,3.73775 2.6386,3.73775 l 0.87953,-0.87953 c 0.879436,-0.87943 0.439333,-5.93612 -1.099674,-6.37584 -0.192376,-0.055 -0.377576,-0.0758 -0.55707,-0.0698 z m 4.641059,1.53892 c -0.179493,-0.006 -0.365212,0.0148 -0.557588,0.0698 -1.539007,0.43972 -1.978591,5.4964 -1.099159,6.37583 l 0.793234,0.79324 c -0.928806,0.33073 -2.599483,1.27455 -3.404444,1.39009 -0.522816,0.0751 -1.11439,-0.31242 -1.752345,-0.57515 0.869867,-0.39316 1.53348,-0.87365 1.544089,-1.34359 0,0 -2.942762,-3.20649 -3.691247,-3.09904 -0.748485,0.10744 -2.859508,1.36535 -3.795117,1.49965 -0.935604,0.13432 -2.086313,-1.22788 -3.342431,-0.66559 -0.03051,0.0137 -0.0591,0.0316 -0.08785,0.0496 0.07102,-0.23514 0.08534,-0.44547 0.0077,-0.60772 0,0 -4.073998,-1.53102 -4.693253,-1.09709 -0.619257,0.43393 -1.934284,2.50961 -2.708362,3.05201 -0.774063,0.54243 -2.416284,-0.15331 -3.283003,0.91571 -0.866428,1.06925 1.318771,4.84641 2.37195,5.03173 2.364912,0.55089 0.234616,-0.92619 1.565793,-2.27583 0.975212,-0.9142 2.070508,-3.7348 2.68976,-4.16873 0.61926,-0.43393 -0.986473,3.33742 0.314192,2.88768 0.811546,-0.28063 2.260563,-1.49878 3.115056,-2.62724 -0.366246,1.50824 -0.07097,3.93415 0.551387,4.40025 1.861121,1.55965 0.627409,-0.72004 2.424657,-1.32291 1.282986,-0.37516 3.534461,-2.39679 4.282943,-2.50424 0.748485,-0.10744 -2.387283,2.53145 -1.02371,2.71766 0.374475,0.0511 0.943293,-0.007 1.568897,-0.13746 -0.524092,1.44277 -0.233354,4.25903 0.442352,4.76509 1.861119,1.55965 0.627409,-0.72057 2.424657,-1.32344 1.282986,-0.37516 3.534458,-2.39679 4.282943,-2.50424 0.748482,-0.10744 -2.387285,2.53146 -1.02371,2.71766 1.363572,0.18622 5.27553,-1.03634 5.301485,-2.18591 0,0 -0.732062,-0.79737 -1.558562,-1.58336 0.277212,-0.608 0.649623,-1.1398 1.132747,-1.28106 1.282986,-0.37516 3.314316,-0.85787 4.062801,-0.96532 0.748486,-0.10744 -1.067985,1.87207 0.29559,2.05827 0.635836,0.0868 1.537343,0.009 2.322857,-0.21394 0.123473,0.63121 0.318225,1.13682 0.567407,1.32344 l 0.856276,0.6413 c 0,0 0.505534,-3.12853 1.788522,-3.50366 1.282986,-0.37516 3.314318,-0.85735 4.062802,-0.9648 0.748484,-0.10744 -1.067985,1.87206 0.295589,2.05827 0.56731,0.0775 1.346538,0.023 2.066023,-0.14728 0.09042,0.35252 0.202908,0.65276 0.339515,0.85422 -0.06181,1.37243 0.224781,2.90123 0.704866,3.26078 l 0.855762,0.64079 c 0,0 0.506049,-3.12802 1.789038,-3.50315 1.282985,-0.37516 3.314317,-0.85786 4.062801,-0.96531 0.700844,-0.10061 -0.846655,1.62854 0.07286,2.00194 -0.254092,0.0953 -0.490261,0.17216 -0.673344,0.19844 -0.935604,0.13432 -2.086313,-1.22788 -3.342432,-0.66559 -1.255966,0.56263 -1.012504,4.91935 -0.156579,5.56038 l 0.856278,0.64131 c 0,0 0.505532,-3.12854 1.788521,-3.50367 1.282985,-0.37516 3.314317,-0.85735 4.062801,-0.9648 0.748484,-0.10744 -1.067984,1.87206 0.29559,2.05828 1.363571,0.18621 3.9567474,-0.37696 3.9827022,-1.52653 0,0 -1.7120994,-1.86323 -2.8566732,-2.70009 0.151893,-0.16939 0.243323,-0.3587 0.248047,-0.56792 0,0 -0.755623,-0.82199 -1.598352,-1.62006 0.187017,-0.0224 0.373715,-0.0526 0.559139,-0.0884 0.121679,0.40688 0.27845,0.71837 0.467155,0.86713 l 0.976684,0.76998 c 0,0 0.6782482,-3.62224 2.1807458,-4.02146 1.5025017,-0.39922 3.8783108,-0.90173 4.751648,-1.0051 0.8733361,-0.10336 -1.2958053,2.14562 0.2842202,2.4014 1.5800228,0.25578 4.6108482,-0.32452 4.6741333,-1.66036 0,0 -3.3289882,-3.81219 -4.2023274,-3.70882 -0.8733373,0.10336 -3.3643883,1.50531 -4.4560586,1.63453 -1.0916743,0.1292 -2.3897719,-1.48832 -3.8664313,-0.87075 -0.428673,0.17928 -0.716196,0.7392 -0.889351,1.4552 -0.719676,-0.66273 -1.400449,-1.18423 -1.730643,-1.14515 -0.873338,0.10337 -3.364389,1.5048 -4.456059,1.63401 -0.937329,0.11094 -2.027365,-1.06209 -3.251481,-1.00614 -0.708514,-0.85385 -1.424641,-1.59525 -1.793689,-1.59525 -0.879433,0 -3.517999,1.09916 -4.617289,1.09916 -1.099293,0 -2.198229,-1.75902 -3.737239,-1.3193 -0.446678,0.12762 -0.797584,0.65002 -1.053682,1.34049 -0.636733,-0.74265 -1.252445,-1.34049 -1.584918,-1.34049 -0.879433,0 -3.517482,1.09916 -4.616773,1.09916 -0.961882,0 -1.923708,-1.34647 -3.180167,-1.38855 z m 6.697782,3.14761 c 0.438158,0 0.05738,0.4914 -0.244428,1.0387 -0.93517,0.41528 -2.153303,1.05094 -2.80603,1.14463 -0.874919,0.12561 -1.93815,-1.05714 -3.099554,-0.75137 0.379288,-0.5178 0.823648,-0.92227 1.313098,-0.99219 1.539012,-0.21985 3.957481,-0.43977 4.836914,-0.43977 z m 64.140272,0.21291 c -0.02752,-0.003 -0.05309,-0.002 -0.07648,0.001 -0.748483,0.10744 -2.859508,1.36535 -3.795116,1.49965 -0.935604,0.13433 -2.086313,-1.2284 -3.342432,-0.66611 -1.255966,0.56264 -1.012505,4.91988 -0.15658,5.56091 l 0.855762,0.64078 c 0,0 0.506049,-3.12801 1.789038,-3.50314 1.282985,-0.37516 3.314317,-0.85787 4.062802,-0.96532 0.484288,-0.0695 -0.102113,0.73331 -0.209291,1.36013 -0.671811,0.78806 -1.578538,2.09638 -2.170926,2.51147 -0.774063,0.54243 -2.416284,-0.15383 -3.283004,0.91519 -0.86643,1.06925 1.318771,4.84642 2.371948,5.03174 2.364911,0.55088 0.234617,-0.92619 1.565796,-2.27583 0.975211,-0.91421 2.070504,-3.73481 2.689759,-4.16874 0.619257,-0.43393 -0.985956,3.33743 0.314709,2.88768 1.300665,-0.44976 4.238476,-3.30761 3.742407,-4.34496 0,0 -0.61539,-0.23048 -1.400432,-0.48679 0.39139,-0.23935 0.648724,-0.5401 0.65681,-0.89814 0,0 -2.761666,-3.00918 -3.614767,-3.09955 z m -54.249402,0.06 c -0.954669,0.40235 -2.338146,1.14921 -3.047875,1.25108 -0.446307,0.0641 -0.942602,-0.2126 -1.474846,-0.45837 0.245917,-0.21559 0.5094,-0.36636 0.788064,-0.40617 1.095759,-0.15654 2.620162,-0.30936 3.734657,-0.38654 z m 11.019999,1.02112 c 0.294433,0.0168 0.07277,0.44202 -0.135909,0.92863 -0.0075,4.3e-4 -0.01614,-10e-4 -0.02325,0 -0.748484,0.10744 -2.859509,1.36535 -3.795117,1.49965 -0.549536,0.0789 -1.174865,-0.35435 -1.850533,-0.61495 0.276031,-0.39962 0.601683,-0.70466 0.979785,-0.80512 1.502502,-0.39922 3.878311,-0.90225 4.751648,-1.00562 0.02729,-0.003 0.05182,-0.004 0.07338,-0.003 z m 22.1273311,0.51625 c -1.5979674,-0.0916 -3.6785668,4.53859 -3.1377929,5.65857 l 0.5410523,1.11983 c 0,0 2.1961729,-2.95953 3.7217365,-2.66031 0.4463264,0.0875 0.963969,0.20164 1.493449,0.32402 -0.155227,0.16325 -0.304183,0.30859 -0.434599,0.39997 -0.7740625,0.54243 -2.4162836,-0.15383 -3.2830036,0.91519 -0.86643,1.06925 1.3187712,4.84642 2.3719483,5.03174 2.3649113,0.55088 0.2346171,-0.92619 1.5657953,-2.27583 0.734173,-0.68825 1.53633,-2.45629 2.152324,-3.47369 0.214596,0.0599 0.398217,0.11438 0.562239,0.16536 -0.06038,0.28223 -0.12999,0.5971 -0.177767,0.89555 -0.50877,0.43934 -1.043868,0.97935 -0.334863,1.47898 1.308362,0.922 4.286898,1.72765 4.928898,0.55449 0,0 -0.516551,-1.90812 -1.106909,-3.41013 0.570384,-0.72274 0.920316,-1.42387 0.722953,-1.83658 0,0 -4.073998,-1.53153 -4.693253,-1.0976 -0.205667,0.14411 -0.491219,0.47608 -0.805119,0.86609 -0.396769,-0.0393 -0.747714,-0.0939 -0.992704,-0.17932 -1.037979,-0.362 -1.4964108,-2.38472 -3.0943849,-2.47633 z m -8.09459624,1.27279 c -0.17065644,-3.4e-4 -0.30189814,0.0228 -0.37930502,0.077 -0.61925797,0.43393 -1.93428574,2.51012 -2.70836174,3.05253 -0.7740629,0.54243 -2.4162838,-0.15384 -3.2830037,0.91518 -0.86643,1.06925 1.3187712,4.84694 2.3719483,5.03225 2.3649118,0.5509 0.2346169,-0.9267 1.5657958,-2.27634 0.9752109,-0.9142 2.07050523,-3.73429 2.68975822,-4.16822 0.61925895,-0.43393 -0.98595552,3.33691 0.31470946,2.88716 1.30066392,-0.44976 4.23847732,-3.3076 3.74240712,-4.34495 0,0 -3.1193535,-1.17223 -4.31394844,-1.17461 z m -42.17571986,0.4253 c -0.01397,0.16145 -0.02258,0.32535 -0.02636,0.49196 -0.0521,0.0115 -0.10876,0.0268 -0.170016,0.046 0.02766,-0.0849 0.07643,-0.23116 0.196371,-0.53795 z m 14.102498,2.86132 c -0.02683,0.0293 -0.04667,0.0634 -0.06305,0.0997 0.0211,-0.0332 0.04429,-0.0646 0.06305,-0.0997 z m -0.06305,0.0997 c -1.282274,2.01992 -6.800508,0.62587 -7.074503,0.7338 -1.387099,1.81415 -1.1278,4.83353 0.699699,6.20221 0,0 0.505531,-3.12854 1.788522,-3.50366 4.295545,-2.51699 3.861604,0.99418 4.358389,1.09347 1.363572,0.18621 3.956748,-0.37747 3.982703,-1.52704 -1.431522,0.85892 -4.161855,-2.09556 -3.75481,-2.99878 z" id="path1434"/> <path id="path1488" d="m 7.9712649,143.05969 c 0,0 -1.3231089,-4.88552 -2.1534923,-5.17512 -0.8303772,-0.28961 -3.6835271,-0.12045 -4.7215019,-0.48246 -1.03797401,-0.36201 -1.49673698,-2.38478 -3.0947113,-2.47639 -1.5979673,-0.0916 -3.6783885,4.53826 -3.1376137,5.65824 0.5407739,1.11999 0.5407739,1.11999 0.5407739,1.11999 0,0 2.1964022,-2.95952 3.72196508,-2.6603 1.52556742,0.29922 3.88151462,0.88804 4.71189622,1.17765 0.8303763,0.28961 -2.1047801,1.36154 -0.7964161,2.28354 1.3083605,0.922 4.2870957,1.72803 4.9291001,0.55485 z" style="fill:#c1a075;fill-opacity:1;fill-rule:evenodd;stroke:none;stroke-width:0.26458332px;stroke-linecap:butt;stroke-linejoin:miter;stroke-opacity:1"/> <g id="g1598" transform="matrix(0.54715556,0,0,0.54715556,-31.584975,24.524923)" style="stroke-width:1.82763386"> <path id="path1520" d="m -10.553202,220.929 c 0,0 -2.198583,-3.95745 0.219859,-5.93617 3.0780171,-1.53901 4.8368841,2.6383 6.595751,3.73759 1.7588668,1.09929 2.5731254,-5.51229 7.0354674,-4.17731 4.431164,1.32566 0.7695836,3.10246 -0.2198585,4.61703 2.7297903,-0.0594 9.1864921,0.11441 9.8936251,4.83688 -8.8014244,3.44331 -7.4273592,-2.61835 -10.5532001,-0.87943 0,0 5.7163173,5.05674 4.1773088,7.03546 C 5.0567423,232.14178 1.7084845,232.97364 0,232.80136 c -3.1103218,-0.31364 -3.4689028,-7.16981 -3.737592,-7.69505 -1.7588669,0.21986 -3.7375922,7.25533 -7.035468,6.59575 -3.297875,-0.65957 -0.439716,-6.15603 -0.439716,-6.15603 -3.643779,1.08769 -6.405563,1.73774 -7.255326,-1.75887 1.539008,-2.61191 6.156033,-3.94757 7.9149,-2.85816 z" style="fill:#fbffe5;fill-rule:evenodd;stroke:none;stroke-width:0.48356143px;stroke-linecap:butt;stroke-linejoin:miter;stroke-opacity:1"/> <path id="path1522" d="m -8.5744759,221.6985 c 0.8433626,2.497 2.6603159,1.59739 4.8368838,1.8688 1.5390085,0 5.9361757,-0.65957 5.4964589,-1.97872 -0.4397167,-1.31915 -8.7943342,-2.52838 -10.3333427,0.10992 z" style="fill:#fbb88d;fill-opacity:1;fill-rule:evenodd;stroke:none;stroke-width:0.48356143px;stroke-linecap:butt;stroke-linejoin:miter;stroke-opacity:1"/> </g> <path style="fill:#c1a075;fill-opacity:1;fill-rule:evenodd;stroke:none;stroke-width:0.26458332px;stroke-linecap:butt;stroke-linejoin:miter;stroke-opacity:1" d="m -17.422344,145.36084 c 0,0 -1.384048,-4.12606 -2.111506,-4.33242 -0.727453,-0.20635 -3.167764,0.0839 -4.077083,-0.17404 -0.909318,-0.25794 -1.405929,-1.9708 -2.782157,-1.96818 -1.376226,0.003 -2.926487,4.0823 -2.405386,5.0161 0.521102,0.93382 0.521102,0.93382 0.521102,0.93382 0,0 1.734739,-2.65189 3.059371,-2.47263 1.324637,0.17926 3.376729,0.56487 4.104185,0.77123 0.727452,0.20635 -1.737346,1.27565 -0.567474,2.0005 1.169869,0.72485 3.767554,1.26522 4.258948,0.22562 z" id="path1492"/> <path style="fill:#c1a075;fill-opacity:1;fill-rule:evenodd;stroke:none;stroke-width:0.26458332px;stroke-linecap:butt;stroke-linejoin:miter;stroke-opacity:1" d="m 22.442771,140.25544 c 0,0 -2.942945,-3.20611 -3.69143,-3.09866 -0.748484,0.10744 -2.859629,1.36539 -3.795237,1.49969 -0.935604,0.13432 -2.086104,-1.22835 -3.342223,-0.66606 -1.255966,0.56263 -1.012552,4.91977 -0.156627,5.5608 0.855931,0.64104 0.855931,0.64104 0.855931,0.64104 0,0 0.505823,-3.12825 1.788812,-3.50338 1.282985,-0.37516 3.314455,-0.85776 4.062939,-0.96521 0.748484,-0.10744 -1.068094,1.87213 0.29548,2.05834 1.363572,0.18621 3.9564,-0.37699 3.982355,-1.52656 z" id="path1496"/> <path style="fill:#948c75;fill-opacity:1;fill-rule:evenodd;stroke:none;stroke-width:0.99999994px;stroke-linecap:butt;stroke-linejoin:miter;stroke-opacity:1" d="M -154.58789 679.51367 C -159.33671 679.67279 -162.97196 684.76172 -166.60742 684.76172 C -170.76221 684.76172 -180.73475 680.60742 -184.05859 680.60742 C -185.99878 680.60742 -190.45522 685.96438 -193.85547 690.44336 C -194.22854 693.92665 -194.40349 697.19532 -194.29102 700.07227 C -190.16444 701.64873 -183.7609 701.65321 -179.90234 700.55078 C -174.08562 698.88881 -183.22617 691.41016 -179.90234 691.41016 C -176.57851 691.41016 -167.43978 692.24134 -161.62305 693.07227 C -155.80633 693.90323 -151.65039 707.19922 -151.65039 707.19922 L -148.32617 703.875 C -145.00232 700.55117 -146.6657 681.43928 -152.48242 679.77734 C -153.20951 679.56947 -153.90949 679.49099 -154.58789 679.51367 z M -137.04688 685.33008 C -137.72527 685.3074 -138.42721 685.38783 -139.1543 685.5957 C -144.97102 687.25764 -146.63244 706.36953 -143.30859 709.69336 L -140.31055 712.69141 C -143.821 713.94145 -150.13537 717.50859 -153.17773 717.94531 C -155.15374 718.22916 -157.38961 716.76452 -159.80078 715.77148 C -156.51309 714.28556 -154.00494 712.46955 -153.96484 710.69336 C -153.96484 710.69336 -165.0871 698.57436 -167.91602 698.98047 C -170.74494 699.38654 -178.72361 704.14085 -182.25977 704.64844 C -185.61544 705.13019 -189.70429 700.53084 -194.16992 701.875 C -193.83048 705.72053 -192.89656 708.72439 -191.12109 710.36328 C -189.75945 711.62019 -186.42066 713.48749 -181.52734 715.73438 C -177.10155 712.96513 -172.16109 708.97477 -170.13281 708.68359 C -167.5507 708.31291 -177.19236 716.58609 -174.97656 718.56836 C -174.68046 718.69108 -174.40432 718.80949 -174.10156 718.93359 C -174.06628 718.9396 -174.03898 718.95002 -174.00195 718.95508 C -172.58661 719.14821 -170.43676 718.92862 -168.07227 718.43555 C -168.35684 719.21895 -168.57016 720.11781 -168.73242 721.07422 C -163.31263 723.1704 -157.11603 725.39842 -150.32812 727.6582 C -146.53527 725.10074 -142.75648 722.22366 -141.04883 721.97852 C -139.15675 721.70691 -143.8161 726.0731 -145.57812 729.20898 C -143.15128 729.9898 -140.67298 730.76961 -138.125 731.54688 C -132.04884 730.13214 -124.94875 726.99531 -124.88086 723.98828 C -124.88086 723.98828 -127.6477 720.97461 -130.77148 718.00391 C -129.72375 715.70599 -128.31621 713.69409 -126.49023 713.16016 C -121.64116 711.74223 -113.96369 709.91978 -111.13477 709.51367 C -108.30585 709.1076 -115.17125 716.58918 -110.01758 717.29297 C -107.61442 717.62103 -104.20715 717.32697 -101.23828 716.48438 C -100.77161 718.87004 -100.03554 720.78103 -99.09375 721.48633 L -95.857422 723.91016 C -95.857422 723.91016 -93.946749 712.08578 -89.097656 710.66797 C -84.248575 709.25004 -76.571102 707.42759 -73.742188 707.02148 C -70.913272 706.61541 -77.778665 714.097 -72.625 714.80078 C -70.480836 715.09369 -67.535723 714.88772 -64.816406 714.24414 C -64.474661 715.5765 -64.049513 716.71123 -63.533203 717.47266 C -63.766816 722.65983 -62.683635 728.43791 -60.869141 729.79688 L -57.634766 732.21875 C -57.634766 732.21875 -55.722139 720.39633 -50.873047 718.97852 C -46.02397 717.56059 -38.346496 715.73619 -35.517578 715.33008 C -32.868719 714.94986 -38.717517 721.48521 -35.242188 722.89648 C -36.20253 723.25667 -37.095142 723.54716 -37.787109 723.64648 C -41.323252 724.15411 -45.672386 719.00567 -50.419922 721.13086 C -55.16688 723.25733 -54.246711 739.72369 -51.011719 742.14648 L -47.775391 744.57031 C -47.775391 744.57031 -45.864717 732.74594 -41.015625 731.32812 C -36.166546 729.91021 -28.489072 728.08775 -25.660156 727.68164 C -22.83124 727.27557 -29.696634 734.75715 -24.542969 735.46094 C -19.389311 736.16472 -9.5883313 734.03624 -9.4902344 729.69141 C -9.4902344 729.69141 -15.961163 722.64926 -20.287109 719.48633 C -19.713029 718.84608 -19.36746 718.13063 -19.349609 717.33984 C -19.349609 717.33984 -22.205508 714.23309 -25.390625 711.2168 C -24.683789 711.13214 -23.978155 711.01617 -23.277344 710.88086 C -22.817455 712.41864 -22.224934 713.59596 -21.511719 714.1582 L -17.820312 717.06836 C -17.820312 717.06836 -15.256856 703.378 -9.578125 701.86914 C -3.8993782 700.36028 5.0800577 698.461 8.3808594 698.07031 C 11.681657 697.67966 3.4833283 706.17976 9.4550781 707.14648 C 15.426818 708.11321 26.881906 705.91994 27.121094 700.87109 C 27.121094 700.87109 14.539091 686.46283 11.238281 686.85352 C 7.9374792 687.24417 -1.4775178 692.5429 -5.6035156 693.03125 C -9.7295283 693.5196 -14.635724 687.40611 -20.216797 689.74023 C -21.836978 690.41783 -22.923685 692.53409 -23.578125 695.24023 C -26.29816 692.73539 -28.87116 690.76441 -30.119141 690.91211 C -33.419942 691.30276 -42.834941 696.59954 -46.960938 697.08789 C -50.503593 697.50715 -54.62342 693.07369 -59.25 693.28516 C -61.927844 690.05801 -64.634466 687.25586 -66.029297 687.25586 C -69.353138 687.25586 -79.325676 691.41016 -83.480469 691.41016 C -87.635281 691.41016 -91.788738 684.76189 -97.605469 686.42383 C -99.293697 686.90617 -100.61996 688.88062 -101.58789 691.49023 C -103.99444 688.68341 -106.32155 686.42383 -107.57812 686.42383 C -110.90197 686.42383 -120.87254 690.57813 -125.02734 690.57812 C -128.6628 690.57812 -132.29806 685.48912 -137.04688 685.33008 z M -111.73242 697.22656 C -110.07639 697.22656 -111.51556 699.08381 -112.65625 701.15234 C -116.19075 702.72191 -120.79472 705.12441 -123.26172 705.47852 C -126.5685 705.95326 -130.587 701.48301 -134.97656 702.63867 C -133.54303 700.68159 -131.86356 699.15294 -130.01367 698.88867 C -124.19693 698.05774 -115.05626 697.22656 -111.73242 697.22656 z M -74.349609 698.25781 C -77.957807 699.77854 -83.1867 702.60127 -85.869141 702.98633 C -87.55597 703.2286 -89.431729 702.1828 -91.443359 701.25391 C -90.513909 700.43904 -89.518066 699.86921 -88.464844 699.71875 C -84.323396 699.12714 -78.56187 698.54955 -74.349609 698.25781 z M -32.699219 702.11719 C -31.586397 702.18068 -32.424183 703.7878 -33.212891 705.62695 C -33.241237 705.62854 -33.273909 705.62317 -33.300781 705.62695 C -36.129697 706.03299 -44.108375 710.78733 -47.644531 711.29492 C -49.721521 711.59313 -52.084966 709.95561 -54.638672 708.9707 C -53.595409 707.46033 -52.364598 706.30743 -50.935547 705.92773 C -45.256799 704.41887 -36.277364 702.51764 -32.976562 702.12695 C -32.87342 702.11561 -32.780705 702.11341 -32.699219 702.11719 z M 50.931641 704.06836 C 44.89208 703.72215 37.028396 721.22208 39.072266 725.45508 L 40.3125 728.02344 C 41.891724 727.10686 43.445413 726.18838 44.972656 725.26758 C 47.580796 722.60129 51.062448 719.69938 54.107422 719.55859 C 57.223446 717.53786 60.200967 715.53132 63.050781 713.54883 C 62.908006 713.50848 62.755011 713.47238 62.626953 713.42773 C 58.703887 712.05955 56.971227 704.4146 50.931641 704.06836 z M 20.337891 708.87891 C 19.69289 708.87762 19.196858 708.96507 18.904297 709.16992 C 16.563794 710.80997 11.59361 718.65702 8.6679688 720.70703 C 5.7423767 722.75716 -0.46444228 720.12563 -3.7402344 724.16602 C -7.01493 728.20728 1.2440975 742.48512 5.2246094 743.18555 C 14.162859 745.26765 6.111351 739.68303 11.142578 734.58203 C 14.828415 731.12679 18.96811 720.46818 21.308594 718.82812 C 23.6491 717.18808 17.582148 731.44008 22.498047 729.74023 C 27.413942 728.04035 38.517488 717.23905 36.642578 713.31836 C 36.642578 713.31836 24.852895 708.8879 20.337891 708.87891 z M -139.06641 710.48633 C -139.11921 711.09657 -139.15173 711.71603 -139.16602 712.3457 C -139.36293 712.38917 -139.57708 712.44696 -139.80859 712.51953 C -139.70405 712.19865 -139.51973 711.64589 -139.06641 710.48633 z M -86.003906 721.67773 C -90.850296 729.31212 -111.70662 724.04325 -112.74219 724.45117 C -115.56839 728.14749 -116.56847 733.16355 -115.82422 737.81641 C -113.16489 738.50141 -110.47708 739.17401 -107.76172 739.82617 C -106.70024 737.39233 -105.25103 735.20977 -103.33789 734.65039 C -87.102761 725.1374 -88.742843 738.40793 -86.865234 738.7832 C -81.711573 739.48695 -71.910598 737.35655 -71.8125 733.01172 C -77.222973 736.25799 -87.542348 725.09152 -86.003906 721.67773 z " id="path1570" transform="scale(0.26458333)"/> <path style="fill:#f9cdad;fill-opacity:1;fill-rule:evenodd;stroke:none;stroke-width:0.99999994px;stroke-linecap:butt;stroke-linejoin:miter;stroke-opacity:1" d="M -110.09766 679.50977 C -117.00474 684.68273 -117.98477 696.09454 -112.74219 702.95117 C -111.70662 703.3591 -90.850296 698.09023 -86.003906 705.72461 C -87.542348 702.31083 -77.222973 691.14436 -71.8125 694.39062 C -71.910598 690.0458 -81.711573 687.91539 -86.865234 688.61914 C -88.742843 688.99441 -87.102761 702.26495 -103.33789 692.75195 C -108.18699 691.33414 -110.09766 679.50977 -110.09766 679.50977 z M 58.357422 682.11914 C 57.712336 682.15579 56.859467 682.29638 55.742188 682.55664 C 51.761672 683.25706 43.502648 697.53296 46.777344 701.57422 C 50.053136 705.61461 56.259954 702.98307 59.185547 705.0332 C 59.678454 705.37858 60.241444 705.92788 60.828125 706.54492 C 58.826945 707.00742 56.870495 707.43882 55.183594 707.76953 C 49.417683 708.90044 41.117188 697.71484 41.117188 697.71484 L 39.072266 701.94727 C 37.249714 705.72189 43.304742 720.0353 48.919922 722.84766 C 53.189605 720.19027 57.238668 717.53881 61.056641 714.92383 C 61.384852 714.64698 61.725068 714.41021 62.082031 714.22461 C 72.706592 706.88983 81.422781 699.95177 88.154297 694.20508 C 88.427473 693.25357 88.611328 692.5918 88.611328 692.5918 C 86.184871 688.15781 74.927412 691.20278 69.982422 694.6875 C 67.302714 696.57587 69.325133 698.61685 71.248047 700.27734 C 71.428618 701.40534 71.691714 702.59541 71.919922 703.66211 C 71.299992 703.85479 70.605997 704.06072 69.794922 704.28711 C 67.466756 700.44178 64.43498 693.75943 61.660156 691.1582 C 57.257835 686.69483 62.873026 681.86259 58.357422 682.11914 z M -47.775391 682.83398 L -51.011719 685.25781 C -54.246711 687.6806 -55.16688 704.14696 -50.419922 706.27344 C -45.672386 708.39863 -41.323252 703.25018 -37.787109 703.75781 C -37.095142 703.85714 -36.20253 704.14762 -35.242188 704.50781 C -38.717517 705.91909 -32.868719 712.45444 -35.517578 712.07422 C -38.346496 711.66811 -46.02397 709.84371 -50.873047 708.42578 C -55.722139 707.00797 -57.634766 695.18555 -57.634766 695.18555 L -60.869141 697.60742 C -62.683635 698.96639 -63.766816 704.74447 -63.533203 709.93164 C -64.049513 710.69306 -64.474661 711.8278 -64.816406 713.16016 C -67.535723 712.51658 -70.480836 712.3106 -72.625 712.60352 C -77.778665 713.3073 -70.913272 720.78888 -73.742188 720.38281 C -76.571102 719.9767 -84.248575 718.15426 -89.097656 716.73633 C -93.946749 715.31851 -95.857422 703.49414 -95.857422 703.49414 L -99.09375 705.91797 C -100.03554 706.62327 -100.77161 708.53425 -101.23828 710.91992 C -104.20715 710.07731 -107.61442 709.78327 -110.01758 710.11133 C -115.17125 710.81511 -108.30585 718.2967 -111.13477 717.89062 C -113.96369 717.48452 -121.64116 715.66012 -126.49023 714.24219 C -128.31621 713.70825 -129.72375 711.69831 -130.77148 709.40039 C -127.6477 706.42968 -124.88086 703.41602 -124.88086 703.41602 C -124.97896 699.07118 -139.76431 694.45051 -144.91797 695.1543 C -150.07164 695.85808 -138.21992 705.83185 -141.04883 705.42578 C -143.87775 705.01967 -152.38725 697.37887 -157.23633 695.96094 C -164.02908 693.68237 -159.36624 685.06424 -166.40039 690.95898 C -168.95424 692.87161 -170.05309 703.5158 -168.07227 708.96875 C -170.43676 708.47567 -172.58661 708.25608 -174.00195 708.44922 C -179.15561 709.153 -167.30389 719.12681 -170.13281 718.7207 C -172.96172 718.31459 -181.47124 710.67379 -186.32031 709.25586 C -192.56768 707.16024 -189.14816 699.73471 -194.02734 703.13672 C -193.60256 706.37165 -192.69655 708.90902 -191.12109 710.36328 C -188.31761 712.95112 -177.13068 718.11858 -161.16406 723.89453 C -157.54854 720.59262 -153.96484 716.71094 -153.96484 716.71094 C -154.00494 714.93475 -156.51309 713.11873 -159.80078 711.63281 C -157.38961 710.63978 -155.15374 709.17514 -153.17773 709.45898 C -150.13537 709.89571 -143.821 713.46285 -140.31055 714.71289 L -143.30859 717.71094 C -144.87786 719.2802 -145.32169 724.36877 -144.75586 729.47852 C -133.00449 733.23683 -119.7832 736.98529 -105.96289 740.25 C -104.72781 739.36743 -103.17864 737.76744 -101.58789 735.91211 C -100.61996 738.52172 -99.293697 740.49617 -97.605469 740.97852 C -91.788738 742.64045 -87.635281 735.99219 -83.480469 735.99219 C -79.325676 735.99219 -69.353138 740.14648 -66.029297 740.14648 C -64.634466 740.14648 -61.927844 737.34434 -59.25 734.11719 C -54.62342 734.32865 -50.503593 729.89519 -46.960938 730.31445 C -42.834941 730.80281 -33.419942 736.09958 -30.119141 736.49023 C -28.87116 736.63794 -26.29816 734.66695 -23.578125 732.16211 C -22.923685 734.86825 -21.836978 736.98452 -20.216797 737.66211 C -14.635724 739.99623 -9.7295283 733.88274 -5.6035156 734.37109 C -1.4775178 734.85945 7.9374792 740.15818 11.238281 740.54883 C 14.539091 740.93952 27.121094 726.53125 27.121094 726.53125 C 26.881906 721.48241 15.426818 719.28913 9.4550781 720.25586 C 3.4833283 721.22259 11.681657 729.72268 8.3808594 729.33203 C 5.0800577 728.94134 -3.8993782 727.04207 -9.578125 725.5332 C -15.256856 724.02434 -17.820312 710.33398 -17.820312 710.33398 L -21.511719 713.24414 C -22.224934 713.80638 -22.817455 714.98371 -23.277344 716.52148 C -23.978155 716.38618 -24.683789 716.27216 -25.390625 716.1875 C -22.205508 713.17121 -19.349609 710.06445 -19.349609 710.06445 C -19.36746 709.27366 -19.713029 708.55822 -20.287109 707.91797 C -15.961163 704.75503 -9.4902344 697.71289 -9.4902344 697.71289 C -9.5883313 693.36806 -19.389311 691.23957 -24.542969 691.94336 C -29.696634 692.64715 -22.83124 700.12873 -25.660156 699.72266 C -28.489072 699.31655 -36.166546 697.4941 -41.015625 696.07617 C -45.864717 694.65836 -47.775391 682.83398 -47.775391 682.83398 z M 7.8398438 683.7793 C 7.1947571 683.81589 6.3418906 683.95653 5.2246094 684.2168 C 1.2440975 684.91722 -7.01493 699.19507 -3.7402344 703.23633 C -0.46444228 707.27672 5.7423767 704.64518 8.6679688 706.69531 C 11.59361 708.74533 16.563794 716.59237 18.904297 718.23242 C 19.196858 718.43727 19.69289 718.52472 20.337891 718.52344 C 24.852895 718.51444 36.642578 714.08398 36.642578 714.08398 C 38.517488 710.16329 27.413942 699.36199 22.498047 697.66211 C 17.582148 695.96227 23.6491 710.21427 21.308594 708.57422 C 18.96811 706.93417 14.828415 696.27556 11.142578 692.82031 C 6.7402544 688.35694 12.35545 683.52312 7.8398438 683.7793 z M -139.80859 714.88281 C -139.57708 714.95538 -139.36293 715.01318 -139.16602 715.05664 C -139.15173 715.68631 -139.11921 716.30577 -139.06641 716.91602 C -139.51973 715.75646 -139.70405 715.20369 -139.80859 714.88281 z M -48.435547 716.08203 C -48.167159 716.06387 -47.904155 716.07015 -47.644531 716.10742 C -44.108375 716.61501 -36.129697 721.36936 -33.300781 721.77539 C -33.273909 721.77917 -33.241237 721.7738 -33.212891 721.77539 C -32.424183 723.61455 -31.586397 725.22166 -32.699219 725.28516 L -32.699219 725.28711 C -32.780705 725.29089 -32.87342 725.28673 -32.976562 725.27539 C -36.277364 724.8847 -45.256799 722.98347 -50.935547 721.47461 C -52.364598 721.09492 -53.595409 719.94202 -54.638672 718.43164 C -52.404179 717.56985 -50.31426 716.20915 -48.435547 716.08203 z M -151.65039 720.20312 C -151.65039 720.20312 -152.59329 723.15445 -154.16992 726.35352 C -151.76938 727.17587 -149.29123 728.00185 -146.73242 728.83203 C -146.93195 726.37924 -147.45221 724.4013 -148.32617 723.52734 L -151.65039 720.20312 z M -123.89062 721.89062 C -123.67848 721.88425 -123.46839 721.89416 -123.26172 721.92383 C -120.79472 722.27793 -116.19075 724.68044 -112.65625 726.25 C -111.51556 728.31854 -110.07639 730.17578 -111.73242 730.17578 C -115.05626 730.17578 -124.19693 729.3446 -130.01367 728.51367 C -131.86356 728.24941 -133.54303 726.72075 -134.97656 724.76367 C -130.86135 725.84711 -127.07289 721.98633 -123.89062 721.89062 z M -86.509766 724.38281 C -86.293112 724.37559 -86.079994 724.38573 -85.869141 724.41602 C -83.1867 724.80107 -77.957807 727.6238 -74.349609 729.14453 C -78.56187 728.85279 -84.323396 728.2752 -88.464844 727.68359 C -89.518066 727.53313 -90.513909 726.9633 -91.443359 726.14844 C -89.683182 725.33565 -88.026344 724.43338 -86.509766 724.38281 z " id="path1574" transform="scale(0.26458333)"/> <path style="fill:#c1a075;fill-opacity:1;fill-rule:evenodd;stroke:none;stroke-width:0.99999994px;stroke-linecap:butt;stroke-linejoin:miter;stroke-opacity:1" d="M -108.60742 696.80078 C -115.5145 701.97375 -116.49453 713.38556 -111.25195 720.24219 C -110.21638 720.65011 -89.360062 715.38128 -84.513672 723.01562 C -86.05211 719.60188 -75.732742 708.43533 -70.322266 711.68164 C -70.420363 707.33681 -80.221342 705.20637 -85.375 705.91016 C -87.252613 706.28543 -85.612526 719.556 -101.84766 710.04297 C -106.69676 708.62519 -108.60742 696.80078 -108.60742 696.80078 z M 59.845703 699.41016 C 59.200617 699.4468 58.349703 699.5874 57.232422 699.84766 C 53.25191 700.54808 44.992882 714.82397 48.267578 718.86523 C 49.252295 720.07979 50.503926 720.68478 51.849609 721.00195 C 56.771851 717.86608 61.392946 714.74611 65.675781 711.70508 C 64.827677 710.38618 63.978261 709.22531 63.150391 708.44922 C 58.74807 703.98584 64.361308 699.15362 59.845703 699.41016 z M -46.285156 700.125 L -49.521484 702.54883 C -52.756476 704.97162 -53.676646 721.43798 -48.929688 723.56445 C -44.182151 725.68964 -39.833018 720.54116 -36.296875 721.04883 C -35.604908 721.14815 -34.712301 721.43864 -33.751953 721.79883 C -37.227285 723.2101 -31.378485 729.74549 -34.027344 729.36523 C -36.85626 728.95912 -44.533735 727.13472 -49.382812 725.7168 C -54.231905 724.29898 -56.144531 712.47656 -56.144531 712.47656 L -59.378906 714.89844 C -61.193401 716.25737 -62.276581 722.03552 -62.042969 727.22266 C -62.559279 727.98408 -62.984427 729.11881 -63.326172 730.45117 C -66.045485 729.80759 -68.990602 729.60162 -71.134766 729.89453 C -76.288431 730.59832 -69.423037 738.0799 -72.251953 737.67383 C -75.080869 737.26772 -82.758341 735.44527 -87.607422 734.02734 C -92.45651 732.60953 -94.367188 720.78516 -94.367188 720.78516 L -97.603516 723.20898 C -98.545306 723.91432 -99.281377 725.82526 -99.748047 728.21094 C -102.71692 727.36833 -106.12418 727.07428 -108.52734 727.40234 C -113.68101 728.10609 -106.81561 735.58771 -109.64453 735.18164 C -112.47345 734.77553 -120.15092 732.95113 -125 731.5332 C -126.82598 730.99931 -128.23352 728.98936 -129.28125 726.69141 C -126.15747 723.72074 -123.39062 720.70703 -123.39062 720.70703 C -123.48872 716.3622 -138.27408 711.74149 -143.42773 712.44531 C -148.5814 713.14906 -136.72969 723.12287 -139.55859 722.7168 C -142.38751 722.31069 -150.89701 714.66988 -155.74609 713.25195 C -162.53884 710.97339 -157.87601 702.35526 -164.91016 708.25 C -166.84135 709.69634 -167.93727 716.13312 -167.50195 721.54492 C -163.09345 723.2302 -158.18767 724.99229 -152.9043 726.78516 C -152.48985 726.72014 -152.08192 726.69334 -151.6875 726.75 C -149.88007 727.00943 -146.93878 728.36448 -144.0957 729.69141 C -127.87337 734.85494 -108.90078 739.98302 -89.455078 743.83398 C -89.622252 743.70701 -89.789993 743.58247 -89.953125 743.43945 C -87.941494 742.51056 -86.065736 741.46476 -84.378906 741.70703 C -81.696466 742.09205 -76.467573 744.91485 -72.859375 746.43555 C -74.140808 746.34681 -75.579633 746.2258 -77.058594 746.0918 C -68.354079 747.53788 -59.65401 748.68757 -51.154297 749.40234 C -49.124198 748.3827 -47.225989 747.39772 -45.470703 747.60547 C -43.686305 747.81667 -40.908835 748.93411 -38.068359 750.1582 C -32.807961 750.31471 -27.675441 750.2726 -22.71875 750.00781 C -22.506075 749.8172 -22.302987 749.6512 -22.087891 749.45312 C -22.045623 749.6279 -21.997073 749.79326 -21.951172 749.96289 C -12.486346 749.41046 -3.688859 748.02448 4.078125 745.59961 C 0.15140764 744.81588 -4.5534649 743.76333 -8.0878906 742.82422 C -13.766622 741.31536 -16.330078 727.625 -16.330078 727.625 L -20.021484 730.53516 C -20.7347 731.0974 -21.32722 732.27469 -21.787109 733.8125 C -22.487924 733.67719 -23.193555 733.56318 -23.900391 733.47852 C -20.715273 730.46219 -17.859375 727.35547 -17.859375 727.35547 C -17.877229 726.56472 -18.222791 725.8492 -18.796875 725.20898 C -14.470927 722.04605 -8 715.00391 -8 715.00391 C -8.0980969 710.65907 -17.89908 708.53059 -23.052734 709.23438 C -28.2064 709.9382 -21.341006 717.41974 -24.169922 717.01367 C -26.998838 716.60756 -34.676312 714.78512 -39.525391 713.36719 C -44.374483 711.94937 -46.285156 700.125 -46.285156 700.125 z M 9.328125 701.07031 C 8.6830384 701.10691 7.8321249 701.24754 6.7148438 701.50781 C 2.7343318 702.2082 -5.5246959 716.48608 -2.25 720.52734 C 1.0257917 724.56773 7.2326111 721.9362 10.158203 723.98633 C 13.083845 726.03638 18.054029 733.88339 20.394531 735.52344 C 20.687093 735.72829 21.183124 735.81574 21.828125 735.81445 C 23.436383 735.81125 25.973737 735.23881 28.566406 734.51367 C 31.858851 732.78388 35.056646 731.02924 38.160156 729.25977 C 36.877913 724.48719 28.187724 716.40526 23.988281 714.95312 C 19.072382 713.25328 25.139334 727.50528 22.798828 725.86523 C 20.458344 724.22518 16.318649 713.56657 12.632812 710.11133 C 8.2304886 705.64795 13.843731 700.81411 9.328125 701.07031 z M 42.607422 715.00586 L 40.5625 719.23828 C 39.843397 720.72759 40.367035 723.86634 41.589844 727.28516 C 44.373815 725.65243 47.069695 724.01224 49.6875 722.37305 C 45.848965 719.37216 42.607422 715.00586 42.607422 715.00586 z M -46.947266 733.37109 C -46.678878 733.35293 -46.41392 733.36116 -46.154297 733.39844 C -42.618141 733.90603 -34.639463 738.66033 -31.810547 739.06641 C -31.783674 739.07019 -31.751003 739.06478 -31.722656 739.06641 C -30.933948 740.90556 -30.096167 742.51268 -31.208984 742.57617 L -31.208984 742.57812 C -31.290471 742.5819 -31.383185 742.57774 -31.486328 742.56641 C -34.787129 742.17572 -43.766565 740.27449 -49.445312 738.76562 C -50.874359 738.38593 -52.105171 737.23303 -53.148438 735.72266 C -50.913945 734.86083 -48.825977 733.49821 -46.947266 733.37109 z M 13.408203 737.33203 C 12.522997 737.35472 11.69178 737.42603 10.945312 737.54688 C 7.514955 738.10219 8.7549595 741.12333 9.8105469 743.53711 C 10.422306 743.28547 11.03749 743.03895 11.632812 742.77148 C 14.908672 741.29972 18.101457 739.78466 21.228516 738.24609 C 18.670487 737.58341 15.841865 737.26966 13.408203 737.33203 z " id="path1578" transform="scale(0.26458333)"/> <g id="g1610" transform="matrix(-0.16944594,-0.43184298,-0.43184298,0.16944594,111.74503,110.92938)" style="stroke-width:2.15565181"> <path id="path1606" d="m -10.553202,220.929 c 0,0 -2.198583,-3.95745 0.219859,-5.93617 3.0780171,-1.53901 4.8368841,2.6383 6.595751,3.73759 1.7588668,1.09929 2.5731254,-5.51229 7.0354674,-4.17731 4.431164,1.32566 0.7695836,3.10246 -0.2198585,4.61703 2.7297903,-0.0594 9.1864921,0.11441 9.8936251,4.83688 -8.8014244,3.44331 -7.4273592,-2.61835 -10.5532001,-0.87943 0,0 5.7163173,5.05674 4.1773088,7.03546 C 5.0567423,232.14178 1.7084845,232.97364 0,232.80136 c -3.1103218,-0.31364 -3.4689028,-7.16981 -3.737592,-7.69505 -1.7588669,0.21986 -3.7375922,7.25533 -7.035468,6.59575 -3.297875,-0.65957 -0.439716,-6.15603 -0.439716,-6.15603 -3.643779,1.08769 -6.405563,1.73774 -7.255326,-1.75887 1.539008,-2.61191 6.156033,-3.94757 7.9149,-2.85816 z" style="fill:#fbffe5;fill-rule:evenodd;stroke:none;stroke-width:0.57034945px;stroke-linecap:butt;stroke-linejoin:miter;stroke-opacity:1"/> <path id="path1608" d="m -8.5744759,221.6985 c 0.8433626,2.497 2.6603159,1.59739 4.8368838,1.8688 1.5390085,0 5.9361757,-0.65957 5.4964589,-1.97872 -0.4397167,-1.31915 -8.7943342,-2.52838 -10.3333427,0.10992 z" style="fill:#fbb88d;fill-opacity:1;fill-rule:evenodd;stroke:none;stroke-width:0.57034945px;stroke-linecap:butt;stroke-linejoin:miter;stroke-opacity:1"/> </g> <g style="stroke-width:1.65810096" transform="matrix(0.60309962,0,0,-0.60309962,-59.133382,288.75612)" id="g1616"> <path style="fill:#fbffe5;fill-rule:evenodd;stroke:none;stroke-width:0.43870583px;stroke-linecap:butt;stroke-linejoin:miter;stroke-opacity:1" d="m -10.553202,220.929 c 0,0 -2.198583,-3.95745 0.219859,-5.93617 3.0780171,-1.53901 4.8368841,2.6383 6.595751,3.73759 1.7588668,1.09929 2.5731254,-5.51229 7.0354674,-4.17731 4.431164,1.32566 0.7695836,3.10246 -0.2198585,4.61703 2.7297903,-0.0594 9.1864921,0.11441 9.8936251,4.83688 -8.8014244,3.44331 -7.4273592,-2.61835 -10.5532001,-0.87943 0,0 5.7163173,5.05674 4.1773088,7.03546 C 5.0567423,232.14178 1.7084845,232.97364 0,232.80136 c -3.1103218,-0.31364 -3.4689028,-7.16981 -3.737592,-7.69505 -1.7588669,0.21986 -3.7375922,7.25533 -7.035468,6.59575 -3.297875,-0.65957 -0.439716,-6.15603 -0.439716,-6.15603 -3.643779,1.08769 -6.405563,1.73774 -7.255326,-1.75887 1.539008,-2.61191 6.156033,-3.94757 7.9149,-2.85816 z" id="path1612"/> <path style="fill:#fbb88d;fill-opacity:1;fill-rule:evenodd;stroke:none;stroke-width:0.43870583px;stroke-linecap:butt;stroke-linejoin:miter;stroke-opacity:1" d="m -8.5744759,221.6985 c 0.8433626,2.497 2.6603159,1.59739 4.8368838,1.8688 1.5390085,0 5.9361757,-0.65957 5.4964589,-1.97872 -0.4397167,-1.31915 -8.7943342,-2.52838 -10.3333427,0.10992 z" id="path1614"/> </g> <g id="g1386" style=""> <path id="path912" d="m -100.62483,106.0486 c 0,0 0.976436,2.44108 2.196981,3.66163 1.220541,1.22054 3.061531,1.88241 4.149845,3.66163 1.339596,2.19002 3.397176,45.08699 5.972646,47.63056 2.616631,4.88563 20.872266,18.89048 23.806765,16.65723 1.70876,0.48822 1.70876,-10.98489 0.732328,-12.44954 -0.976435,-1.46465 -14.830103,-9.81857 -17.329874,-14.00143 -2.931859,-4.90587 -10.008453,-37.59271 -9.764343,-38.81327 0.244109,-1.22053 6.590931,-4.63805 6.590931,-6.10271 0,-1.46465 -15.134733,-1.46465 -16.355279,-0.2441 z" style="opacity:0.18000004;fill:url(#linearGradient936);fill-opacity:1;fill-rule:evenodd;stroke:none;stroke-width:0.26458335px;stroke-linecap:butt;stroke-linejoin:miter;stroke-opacity:1"/> <path id="path938" d="m -101.28729,107.41907 c -2.38806,-2.38125 3.949694,-3.55842 6.925373,-3.32582 2.68054,-0.34176 9.122215,-0.26431 11.520503,0.0506 2.061799,0.65314 1.691777,1.2921 0.94936,1.98502 -0.815999,-0.50222 -16.057309,-1.83746 -15.363067,-0.0314 0.586557,1.52592 7.513971,0.92894 6.276115,2.46579 -0.670808,-0.50517 -9.077544,-0.82549 -10.308284,-1.14417 z" style="opacity:0.34100001;fill:url(#linearGradient946);fill-opacity:1;fill-rule:evenodd;stroke:none;stroke-width:0.26458335px;stroke-linecap:butt;stroke-linejoin:miter;stroke-opacity:1"/> <path id="path948" d="m -99.156992,105.79538 c 0,0 -2.806328,-0.18709 -1.122538,2.43215 5.416005,5.80369 5.728623,10.11363 7.296462,17.21216 0.662395,5.7978 2.80633,7.10937 2.80633,7.10937 0,0 -4.115951,-27.31494 -8.980254,-26.75368 z" style="opacity:0.31300001;fill:#3c3d36;fill-opacity:1;fill-rule:evenodd;stroke:none;stroke-width:0.26458332px;stroke-linecap:butt;stroke-linejoin:miter;stroke-opacity:1"/> <path id="path950" d="m -90.176738,140.0326 c -0.699819,0.27993 2.574988,20.05831 7.320093,22.7852 8.385201,9.59168 17.172,11.37681 17.546179,11.93808 0.374176,0.56126 0.73583,1.92331 0.187087,2.43215 -7.607227,-2.30669 -16.147572,-7.55839 -20.969365,-14.79011 -4.447326,-6.67009 -5.545574,-15.11744 -4.083994,-22.36532 z" style="opacity:0.31300001;fill:#3c3d36;fill-opacity:1;fill-rule:evenodd;stroke:none;stroke-width:0.26458332px;stroke-linecap:butt;stroke-linejoin:miter;stroke-opacity:1"/> <path id="path952" d="m -84.534374,120.91979 c 0,0 5.143752,9.69195 8.706897,14.96801 1.438734,1.17814 3.163413,2.5478 4.125395,2.89136 2.38125,1.05833 2.116666,2.77813 1.984375,3.57188 -0.132292,0.79375 -4.497917,-0.66146 -5.291667,-1.32292 -0.79375,-0.66146 -9.921875,-17.72708 -9.525,-20.10833 z" style="opacity:0.344;fill:#3c3d36;fill-opacity:1;fill-rule:evenodd;stroke:none;stroke-width:0.26458332px;stroke-linecap:butt;stroke-linejoin:miter;stroke-opacity:1"/> <path id="path954" d="m -62.573958,177.54062 c 0,0 0.661459,3.57188 1.852084,4.7625 -1.237268,6.63031 44.717381,26.17207 73.227199,11.23561 9.004924,-5.71605 27.978793,-14.25861 28.302823,-42.80692 -4.834214,-32.98886 -23.849295,-23.92517 -19.913186,-18.24557 4.097199,33.25136 -64.673678,58.97059 -83.46892,45.05438 z" style="opacity:0.3;fill:url(#linearGradient970);fill-opacity:1;fill-rule:evenodd;stroke:none;stroke-width:0.26458332px;stroke-linecap:butt;stroke-linejoin:miter;stroke-opacity:1"/> <path id="path972" d="m 33.113692,131.89794 c -0.784813,-1.24521 13.709397,-11.93716 16.472182,-11.86829 2.417689,0.0603 2.649348,1.77449 2.649348,1.77449 -1.029115,-0.60101 -4.367879,0.21498 -8.348115,3.1607 -3.728909,2.75971 -8.115903,6.87754 -8.956301,6.56183 -0.725499,0.88961 2.114738,5.43845 3.002575,8.11914 1.01999,3.0797 0.628325,-0.12045 2.236306,8.48986 0.852315,3.35998 -0.815041,7.05568 -0.815041,7.05568 0.998159,-6.48828 -6.39801,-20.65852 -6.240954,-23.29341 z" style="opacity:0.303;fill:#3c3d36;fill-rule:evenodd;stroke:none;stroke-width:0.26458332px;stroke-linecap:butt;stroke-linejoin:miter;stroke-opacity:1"/> <path id="path974" d="m 23.474964,185.06639 c 0,0 7.462241,-9.63872 8.395021,-10.26058 0.932778,-0.62185 8.753288,1.86139 12.592531,1.08825 3.245197,-0.51046 10.734385,-3.35893 12.12614,-4.19751 l 10.882434,-5.28576 c 0.01003,2.07511 -22.885716,12.74517 -26.895159,12.12614 -5.036099,0.63285 -7.313431,-1.76989 -8.705948,-0.46639 -0.310926,0.93278 -6.684922,7.92863 -8.395019,6.99585 z" style="opacity:0.3;fill:#3c3d36;fill-rule:evenodd;stroke:none;stroke-width:0.26458332px;stroke-linecap:butt;stroke-linejoin:miter;stroke-opacity:1"/> <path id="path976" d="m -46.483539,89.767367 c 0,0 -9.64747,6.153568 -4.663899,9.794189 7.59749,5.550154 12.964972,4.344694 14.302627,5.752144 1.52217,1.6016 1.554634,2.79834 -1.399169,5.44122 -2.953803,2.64288 -5.13029,4.19751 -5.13029,4.19751 9.064395,-5.5106 35.3426976,-0.72828 37.2578533,-4.14874 1.0992918,-2.56286 -8.3416733,-6.26731 -7.0979663,-8.91018 1.243706,-2.642881 8.2395563,-11.348827 6.5294595,-11.815216 -1.7100968,-0.466391 -24.7186705,-3.575658 -39.7986155,-0.310927 z" style="opacity:0.20400002;fill:url(#linearGradient984);fill-opacity:1;fill-rule:evenodd;stroke:none;stroke-width:0.26458332px;stroke-linecap:butt;stroke-linejoin:miter;stroke-opacity:1"/> <path id="path986" d="m -39.798614,82.149663 c -0.520921,-0.860724 -8.419442,-0.0369 -8.550485,5.285755 2.515493,0.16978 0.337476,6.261828 2.176488,7.773167 1.39917,0.932778 3.08691,-1.649344 2.642876,-2.642878 -0.547538,-1.225126 -0.79134,-9.02038 3.731121,-10.416044 z" style="opacity:0.3;fill:url(#linearGradient996);fill-opacity:1;fill-rule:evenodd;stroke:none;stroke-width:0.26458332px;stroke-linecap:butt;stroke-linejoin:miter;stroke-opacity:1"/> <path id="path941" d="m -48.660023,90.233761 c 0,0 -4.042047,2.798339 -3.420195,6.529459 0.621853,3.73112 3.886584,5.90761 3.886584,5.90761 0,0 -4.508436,-4.819366 -0.466389,-12.437069 z" style="opacity:0.31000001;fill:#3c3d36;fill-opacity:1;fill-rule:evenodd;stroke:none;stroke-width:0.26458332px;stroke-linecap:butt;stroke-linejoin:miter;stroke-opacity:1"/> <path id="path943" d="m -43.685198,104.38092 c -0.21931,0.36552 1.610539,2.30068 2.176487,2.79834 2.365937,2.08048 -2.040201,7.64608 -1.710097,7.30678 1.005021,-1.03302 -8.25051,3.23477 -8.86141,3.73112 l -2.487414,2.02103 c 0.06128,0.0919 15.193052,-5.89455 17.256432,-8.0841 0.681521,-0.7232 2.659701,-6.11344 -6.373998,-7.77317 z" style="opacity:0.30700001;fill:#3c3d36;fill-rule:evenodd;stroke:none;stroke-width:0.26458332px;stroke-linecap:butt;stroke-linejoin:miter;stroke-opacity:1"/> <path id="path945" d="m 0.31092666,80.284107 c -1.25259419,-1.252594 11.85552834,0.662168 14.45809034,3.109266 2.323899,2.185081 1.86556,2.79834 1.554633,3.886585 -0.310926,1.088242 0.466391,5.907606 1e-6,7.151312 -0.46639,1.243708 -17.722821,1.243708 -18.9665277,1.243708 -1.2437067,0 11.1933601,-2.021025 13.8362367,-4.352975 2.642877,-2.331951 2.021023,-7.306776 -0.777316,-7.306776 -2.7983407,0 -10.88243401,0.466389 -10.10511734,-3.73112 z" style="opacity:0.30700001;fill:url(#linearGradient953);fill-opacity:1;fill-rule:evenodd;stroke:none;stroke-width:0.26458332px;stroke-linecap:butt;stroke-linejoin:miter;stroke-opacity:1"/> <path id="path969" d="m -48.504562,89.456444 c -7.194016,-1.07348 57.843525,-0.722581 63.584506,-0.932781 6.128326,-0.224382 8.705946,8.705948 6.99585,11.19336 -1.710097,2.487417 -10.105117,5.130287 -10.72697,5.596677 -0.621854,0.4664 8.891375,-4.6583 9.483263,-5.752139 1.052758,-1.945546 -2.619194,-9.654516 -5.907607,-9.172336 -1.86556,-0.466392 -62.185333,-0.932781 -63.429042,-0.932781 z" style="opacity:0.328;fill:#3c3d36;fill-rule:evenodd;stroke:none;stroke-width:0.26458332px;stroke-linecap:butt;stroke-linejoin:miter;stroke-opacity:1"/> <path id="path971" d="m -13.214383,69.557137 c 0.17845,-0.3569 4.3333063,0.647313 6.6849231,4.197508 2.3700072,3.302422 0.1625285,4.773015 0.5711942,5.101628 1.0747624,0.864228 4.0174794,-0.445028 8.7566056,1.27237 1.7633491,1.092087 2.0210235,1.39917 2.0210235,1.39917 0.1092747,0.661239 -23.9399814,-1.188408 -21.2984774,-2.798339 1.625378,-0.990628 10.1699346,-3.70942 3.264731,-9.172337 z" style="opacity:0.303;fill:url(#linearGradient979);fill-opacity:1;fill-rule:evenodd;stroke:none;stroke-width:0.26458332px;stroke-linecap:butt;stroke-linejoin:miter;stroke-opacity:1"/> <path id="path989" d="m -42.377095,105.48021 c 0.924899,2.0995 47.5157135,1.91969 49.2818769,2.12314 3.4140581,0.39327 4.5084361,-2.90045 4.5084361,-2.90045 0,0 -5.4713858,-0.47919 -8.8614097,0 -3.42019334,0.48346 -42.5969533,-0.29371 -44.9289033,0.77731 z" style="opacity:0.303;fill:#3c3d36;fill-rule:evenodd;stroke:none;stroke-width:0.26458332px;stroke-linecap:butt;stroke-linejoin:miter;stroke-opacity:1"/> <path id="path993" d="m 54.401119,120.23818 c 5.465298,-8.31889 26.557021,20.37551 20.623278,34.82379 -7.467713,15.80816 -15.671389,10.1187 -14.704624,11.0379 3.321273,-0.56601 16.174587,-12.40511 9.831912,-24.3323 -1.612264,-7.05144 -11.623164,-20.74702 -15.750566,-21.52939 z" style="opacity:0.303;fill:url(#linearGradient1001);fill-opacity:1;fill-rule:evenodd;stroke:none;stroke-width:0.26458332px;stroke-linecap:butt;stroke-linejoin:miter;stroke-opacity:1"/> <path id="path1003" d="m -62.029871,181.33528 c -1.240108,1.25695 22.417871,19.00851 49.903731,17.72282 24.355777,-1.13928 27.836872,-8.58183 32.18091,-10.26059 3.099479,-1.1978 4.421593,-4.72117 3.575657,-4.1975 l -9.794189,6.06307 c -5.6554035,3.50096 -41.571916,7.22058 -55.034021,1.71009 -11.332517,-4.63878 -20.922105,-10.31776 -20.832088,-11.03789 z" style="opacity:0.3;fill:#3c3d36;fill-rule:evenodd;stroke:none;stroke-width:0.26458332px;stroke-linecap:butt;stroke-linejoin:miter;stroke-opacity:1"/> <path id="path1007" d="m -48.193634,90.078297 c 0,0 60.486286,-0.155464 62.04092,0.310928 4.350032,2.553447 -64.613336,1.816602 -62.04092,-0.310928 z" style="opacity:0.77700022;fill:#f2f1f1;fill-rule:evenodd;stroke:none;stroke-width:0.26458332px;stroke-linecap:butt;stroke-linejoin:miter;stroke-opacity:1"/> <path id="path1009" d="m -37.622127,91.166542 c 0,0 -9.251787,-0.967691 -11.659751,0.466388 -3.39934,2.0245 -2.639879,4.897596 -0.932778,5.441217 0.95625,-1.833251 9.840273,-3.984299 11.659749,-3.73112 1.802285,0.250786 2.487414,-2.176485 0.93278,-2.176485 z" style="opacity:0.44600004;fill:#f2f1f1;fill-rule:evenodd;stroke:none;stroke-width:0.26458332px;stroke-linecap:butt;stroke-linejoin:miter;stroke-opacity:1"/> <path id="path1011" d="m -17.100967,69.712601 c 0,0 -1.65672,-0.185561 -4.508436,1.243706 -4.034813,2.022229 -4.32711,5.212332 -2.331951,6.06307 1.59885,0.681751 7.46224,0.155463 8.239557,-2.331951 0.777317,-2.487414 0.621853,-5.130289 -1.39917,-4.974825 z" style="opacity:0.45820432;fill:#f2f1f1;fill-rule:evenodd;stroke:none;stroke-width:0.26458332px;stroke-linecap:butt;stroke-linejoin:miter;stroke-opacity:1"/> <path style="opacity:0.80800003;fill:url(#linearGradient1031);fill-opacity:1;fill-rule:evenodd;stroke:none;stroke-width:0.26458332px;stroke-linecap:butt;stroke-linejoin:miter;stroke-opacity:1" d="m -18.406938,70.318999 c 0,0 -1.213067,-0.08933 -3.01844,0.486396 -2.646422,0.843926 -2.636705,3.125267 -1.045141,3.854247 0.938764,0.42998 4.432997,0.09235 4.894768,-1.385312 0.46177,-1.477666 0.369416,-3.047685 -0.831187,-2.955331 z" id="path1013"/> <path id="path1015" d="m -46.172612,86.96903 c 0.268566,-0.805697 4.366972,-2.167698 32.647302,-1.710097 28.28033,0.457601 27.358591,1.586317 26.739693,1.710097 0,0 -57.365969,-1.710097 -59.386995,0 z" style="opacity:1;fill:url(#linearGradient1023);fill-opacity:1;fill-rule:evenodd;stroke:none;stroke-width:0.26458332px;stroke-linecap:butt;stroke-linejoin:miter;stroke-opacity:1"/> <path id="path1033" d="m -42.130564,115.88521 c -3.354945,0.0165 -19.61892,6.20881 -20.987549,14.92448 -0.953275,8.5765 0.711094,14.86711 8.705945,17.56736 0,0 5.645875,-6.24149 10.260581,-8.39502 4.663899,-2.17648 11.880115,-2.63119 13.9917,-7.30679 3.166046,-7.01045 -4.741946,-16.82569 -11.970677,-16.79003 z" style="opacity:0.51399997;fill:url(#linearGradient1041);fill-opacity:1;fill-rule:evenodd;stroke:none;stroke-width:0.26458332px;stroke-linecap:butt;stroke-linejoin:miter;stroke-opacity:1"/> <path id="path1043" d="m -45.084369,118.83901 c 0,0 -6.529458,1.08824 -10.416042,5.13029 -3.886584,4.04205 -5.130289,7.46224 -4.508436,10.41605 0.621852,2.9538 1.865558,4.97482 2.33195,2.9538 0.466389,-2.02103 1.399169,-6.99585 4.197508,-9.01688 2.798342,-2.02102 11.193362,-4.66389 8.39502,-9.48326 z" style="opacity:1;fill:#f2f1f1;fill-rule:evenodd;stroke:none;stroke-width:0.26458332px;stroke-linecap:butt;stroke-linejoin:miter;stroke-opacity:1"/> <path style="opacity:0.52600002;fill:#f2f1f1;fill-rule:evenodd;stroke:none;stroke-width:0.26458332px;stroke-linecap:butt;stroke-linejoin:miter;stroke-opacity:1" d="m -42.684269,117.43984 c 0,0 -8.370492,1.29846 -14.256097,6.12131 -4.797362,4.82284 -4.933345,8.9037 -4.165769,12.4281 0.767577,3.52438 3.235512,6.09125 3.811198,3.67984 2.207515,-0.77959 2.984498,-6.46792 5.647537,-9.67041 3.454103,-2.41142 12.417234,-6.80852 8.963131,-12.55884 z" id="path1045"/> <path id="path1047" d="m -42.752417,126.76764 c 0,0 -5.907606,1.7101 -7.617703,4.35298 -1.710098,2.64287 -3.73112,6.06307 -0.466392,6.06307 3.264731,0 10.105117,-8.70595 8.084095,-10.41605 z" style="fill:#f2f1f1;fill-rule:evenodd;stroke:none;stroke-width:0.26458332px;stroke-linecap:butt;stroke-linejoin:miter;stroke-opacity:1"/> <path id="path1049" d="m -100.11839,105.93556 c -0.173,-0.51899 4.269147,-1.80612 9.172339,-1.55464 6.397557,-0.71136 7.623338,0.23038 8.084092,1.08825 0.621856,0.77731 -14.769015,2.02102 -17.256431,0.46639 z" style="fill:url(#linearGradient1057);fill-opacity:1;fill-rule:evenodd;stroke:none;stroke-width:0.26458332px;stroke-linecap:butt;stroke-linejoin:miter;stroke-opacity:1"/> <path id="path1059" d="m -93.433465,109.66668 c 0,-0.0314 3.742449,-2.91218 3.73112,-0.15547 -0.0077,1.86253 2.86338,30.61568 16.012724,40.88687 6.373995,5.13029 8.942009,10.34274 5.752143,11.03789 -2.662548,0.58023 -14.549864,-8.45764 -21.453941,-22.0758 -2.749719,-5.42377 -4.974826,-19.43291 -4.042046,-29.69349 z" style="opacity:0.51999996;fill:url(#linearGradient1067);fill-opacity:1;fill-rule:evenodd;stroke:none;stroke-width:0.26458332px;stroke-linecap:butt;stroke-linejoin:miter;stroke-opacity:1"/> <path id="path1077" d="m -92.189757,114.01965 c 0,0 0.310926,18.81106 2.487412,23.3195 2.176486,4.50844 9.483264,15.39087 12.12614,17.25643 2.642877,1.86556 2.642877,1.08824 2.642877,1.08824 0,0 -9.814391,-11.18041 -13.165615,-20.12832 -2.313353,-6.17676 -2.691644,-20.44761 -4.090814,-21.53585 z" style="fill:#f2f1f1;fill-rule:evenodd;stroke:none;stroke-width:0.26458332px;stroke-linecap:butt;stroke-linejoin:miter;stroke-opacity:1"/> <path id="path1081" d="m -89.70221,141.78 c 0,0 2.6383,13.63121 5.056743,16.92909 2.418442,3.29788 9.014192,9.45391 11.872351,11.21278 2.858159,1.75886 2.858159,1.75886 2.858159,1.75886 0,0 -13.631219,-15.39008 -15.390085,-20.44682 -1.758868,-5.05675 -2.858158,-7.47519 -4.397168,-9.45391 z" style="opacity:0.51999996;fill:#f2f1f1;fill-rule:evenodd;stroke:none;stroke-width:0.26458332px;stroke-linecap:butt;stroke-linejoin:miter;stroke-opacity:1"/> <path id="path1083" d="m -19.325689,69.839398 c 0,0 -3.773096,0.963527 -3.221316,2.279224 0.55178,1.315698 1.69348,1.455731 2.82243,0.827559 1.12895,-0.628172 1.332625,-2.724824 0.398886,-3.106783 z" style="fill:#f2f1f1;fill-rule:evenodd;stroke:none;stroke-width:0.26458332px;stroke-linecap:butt;stroke-linejoin:miter;stroke-opacity:1"/> <path id="path1085" d="m -39.64315,104.7029 c 0,0 36.8448096,-0.78837 40.731393,-1.09929 7.4054174,-0.025 11.778364,-0.75428 18.500137,-3.4202 -1.596403,4.04714 -8.910145,4.60763 -9.949654,5.1303 -1.4671397,0.64809 -25.082498,-0.30894 -39.098968,0.20864 -5.552311,-0.0502 -9.690582,-0.0603 -10.182908,-0.81945 z" style="fill:#f2f1f1;fill-rule:evenodd;stroke:none;stroke-width:0.26458332px;stroke-linecap:butt;stroke-linejoin:miter;stroke-opacity:1"/> <path id="path1087" d="m 20.52116,125.83486 c -3.811915,-2.11774 -15.7629593,-4.95034 -25.0295968,0.93278 -13.6774802,10.57808 -2.2345418,27.31929 7.7731669,28.76072 7.9500029,7.39366 6.8191389,23.50316 15.2354069,22.69764 15.45581,-5.06915 22.004977,-31.67235 13.680773,-42.59695 -3.038582,-3.9878 -7.46224,-7.46223 -11.65975,-9.79419 z" style="opacity:0.38399999;fill:url(#linearGradient1095);fill-opacity:1;fill-rule:evenodd;stroke:none;stroke-width:0.26458332px;stroke-linecap:butt;stroke-linejoin:miter;stroke-opacity:1"/> <path style="opacity:0.406;fill:#f2f1f1;fill-rule:evenodd;stroke:none;stroke-width:0.26458335px;stroke-linecap:butt;stroke-linejoin:miter;stroke-opacity:1" d="m -3.2645007,131.36683 c 0,0 1.6329632,-4.82797 6.3555683,-6.09142 7.2176354,-1.93095 21.2640224,7.01274 22.0575594,14.82243 0.76867,7.56494 2.616999,16.8529 -1.12157,16.04071 -3.73857,-0.81219 -2.803926,-4.06094 -5.607853,-7.30969 -2.765776,-3.20456 -21.8706332,-12.58891 -21.6837047,-17.46203 z" id="path1107"/> <path id="path1105" d="m -1.7154387,131.04208 c 0,0 1.39304383,-3.85956 5.4217908,-4.86958 6.1571995,-1.54363 18.1398529,5.60613 18.8168029,11.84934 0.655733,6.04756 2.232502,13.47253 -0.956786,12.82325 -3.189289,-0.64927 -1.83356,-2.78049 -5.09486,-5.06619 -2.502773,-1.75409 -18.7093964,-9.75219 -18.1869477,-14.73682 z" style="opacity:0.406;fill:#f2f1f1;fill-rule:evenodd;stroke:none;stroke-width:0.26458332px;stroke-linecap:butt;stroke-linejoin:miter;stroke-opacity:1"/> <path style="opacity:1;fill:#f2f1f1;fill-rule:evenodd;stroke:none;stroke-width:0.26458332px;stroke-linecap:butt;stroke-linejoin:miter;stroke-opacity:1" d="m 2.5013907,131.08804 c 0,0 0.9442002,-2.616 3.674871,-3.30059 4.1733293,-1.04627 12.2951283,3.79982 12.7539643,8.03145 0.444453,4.09901 1.513181,9.13163 -0.648506,8.69156 -2.16169,-0.44009 -1.621267,-2.20041 -3.242535,-3.96072 -1.599207,-1.73637 -12.6458786,-6.82122 -12.5377943,-9.4617 z" id="path1109"/> <path id="path1111" d="m 29.538034,125.52394 c -1.253631,0.46125 15.145979,-11.86433 21.143014,-11.65975 4.158181,-0.87689 13.178914,1.48369 15.857259,6.84038 l 2.642878,5.28576 c 0,0 -12.483427,-8.41948 -15.546336,-8.23956 -5.536628,0.32523 -20.239867,14.04846 -24.096815,7.77317 z" style="opacity:0.622;fill:url(#linearGradient1119);fill-opacity:1;fill-rule:evenodd;stroke:none;stroke-width:0.26458332px;stroke-linecap:butt;stroke-linejoin:miter;stroke-opacity:1"/> <path id="path1129" d="m 33.424616,124.12477 c 0,0 6.684926,-6.374 10.72697,-7.6177 4.042048,-2.13924 10.105119,-2.14156 10.105119,-1.86557 0,0 -7.151316,2.02103 -10.726971,3.57566 -3.575656,1.55463 -9.016873,7.6177 -10.105118,5.90761 z" style="fill:#f2f1f1;fill-rule:evenodd;stroke:none;stroke-width:0.26458332px;stroke-linecap:butt;stroke-linejoin:miter;stroke-opacity:1"/> <path id="path1131" d="m 38.243982,169.52006 c 0,0 -2.021025,2.48741 -0.621856,4.04205 1.992994,4.79255 23.147707,-0.60405 23.164039,-7.92863 0.0053,-2.37582 -8.683383,4.06337 -11.193362,3.57565 -1.39917,0.62186 -10.260579,0.77732 -11.348821,0.31093 z" style="opacity:0.61600001;fill:url(#linearGradient1139);fill-opacity:1;fill-rule:evenodd;stroke:none;stroke-width:0.26458332px;stroke-linecap:butt;stroke-linejoin:miter;stroke-opacity:1"/> <path id="path1141" d="m 39.954079,174.18396 c 0,0 10.105114,0.31093 14.302625,-2.17649 3.420194,-1.86556 5.441217,-4.97482 5.441217,-4.97482 0.230627,0.80666 -13.42701,5.91289 -19.743842,7.15131 z" style="fill:#f2f1f1;fill-rule:evenodd;stroke:none;stroke-width:0.26458332px;stroke-linecap:butt;stroke-linejoin:miter;stroke-opacity:1"/> <path id="path1147" d="m -6.156034,90.992715 c 0,0 6.59575072,-1.319149 13.4113598,-1.319149 6.8156092,0 8.5744762,1.099292 8.5744762,1.099292 0,0 -18.4681023,2.198583 -21.985836,0.219857 z" style="fill:#f2f1f1;fill-rule:evenodd;stroke:none;stroke-width:0.26458332px;stroke-linecap:butt;stroke-linejoin:miter;stroke-opacity:1"/> </g> <path style="fill:url(#linearGradient1626);fill-opacity:1;fill-rule:evenodd;stroke:none;stroke-width:0.26458332px;stroke-linecap:butt;stroke-linejoin:miter;stroke-opacity:1" d="m -98.716403,102.42535 c 0,0 -13.851077,-15.170226 -10.773057,-22.205693 3.07802,-7.035469 6.81561,-10.77306 6.81561,-14.73051 0,-3.957452 -9.23405,-17.148952 -8.79434,-21.765979 0.43972,-4.617024 3.07802,-5.936175 3.07802,-5.936175 0,0 -1.31915,3.957451 1.97873,7.695043 3.29787,3.737591 16.70923,5.056743 21.546115,9.673767 4.836882,4.617027 1.758865,9.014191 -0.659577,12.312069 -2.41844,3.297875 -6.595751,1.978725 -9.893626,8.134759 -3.297875,6.156034 -7.475182,21.32626 -3.297875,26.822719 z" id="path1618"/> <path style="fill:url(#linearGradient1658);fill-rule:evenodd;stroke:none;stroke-width:0.26458332px;stroke-linecap:butt;stroke-linejoin:miter;stroke-opacity:1;fill-opacity:1" d="m -101.79442,96.489175 c 0,0 -6.15603,-11.212777 -5.71632,-13.851078 0.43972,-2.6383 4.39717,-9.673767 5.71632,-12.751784 1.31915,-3.078017 1.53901,-8.354618 -0.43972,-11.432635 -1.97872,-3.078017 -7.25532,-11.432632 -7.25532,-12.971642 0,-1.53901 3.51773,4.177308 7.25532,5.716317 3.737595,1.539008 12.53193,2.198585 12.312072,6.815609 -0.219859,4.617026 -1.978727,5.496459 -5.056743,9.673767 -3.078017,4.17731 -9.673769,25.723429 -6.815609,28.801446 z" id="path1634"/> <path style="color:#000000;clip-rule:nonzero;display:inline;overflow:visible;visibility:visible;opacity:0.358;isolation:auto;mix-blend-mode:normal;color-interpolation:sRGB;color-interpolation-filters:linearRGB;solid-color:#000000;solid-opacity:1;vector-effect:none;fill:url(#linearGradient2174);fill-opacity:1;fill-rule:nonzero;stroke:none;stroke-width:0.75590551;stroke-linecap:round;stroke-linejoin:round;stroke-miterlimit:4;stroke-dasharray:0.75590555, 3.02362185000000006;stroke-dashoffset:0;stroke-opacity:1;color-rendering:auto;image-rendering:auto;shape-rendering:auto;text-rendering:auto;enable-background:accumulate" d="M -60.458984 713.94531 C -61.827733 713.94531 -63.19406 713.95766 -64.556641 713.97656 C -150.3992 715.25892 -223.66122 756.51848 -240.76172 785.23828 C -240.76172 785.23828 -318.52733 832.76203 -335.3125 860.35742 C -335.53274 860.7093 -335.73692 861.06301 -335.9375 861.41602 C -336.66945 862.70431 -337.27465 863.99867 -337.72461 865.29883 C -337.85534 865.67659 -337.98358 866.08418 -338.11133 866.51758 C -338.23824 866.94826 -338.36409 867.40685 -338.48828 867.89062 C -338.60715 868.35358 -338.72137 868.91585 -338.83789 869.42578 C -338.96744 869.99275 -339.09965 870.51366 -339.22656 871.13672 C -339.46405 872.30278 -339.69835 873.56851 -339.92773 874.91992 C -339.92866 874.92748 -339.92876 874.93372 -339.92969 874.9375 C -340.05536 875.67851 -340.17914 876.50941 -340.30273 877.30273 C -340.4072 877.97337 -340.51205 878.60017 -340.61523 879.30664 C -340.71244 879.97225 -340.80811 880.71006 -340.9043 881.40625 C -341.03132 882.32585 -341.15964 883.21496 -341.28516 884.18555 C -341.34461 884.6454 -341.40175 885.15219 -341.46094 885.62305 C -341.62087 886.89573 -341.78128 888.16851 -341.93945 889.51758 C -342.01701 890.17907 -342.09267 890.95788 -342.16992 891.63672 C -342.52588 894.76416 -342.88046 897.96663 -343.23438 901.42188 C -343.65572 905.53578 -344.0801 909.86792 -344.50977 914.34375 C -344.51732 914.42388 -344.52564 914.51129 -344.5332 914.5918 C -344.9617 919.0584 -345.39857 923.68315 -345.84766 928.39648 C -345.85711 928.49891 -345.86713 928.60656 -345.87695 928.70898 C -346.3251 933.41041 -346.78677 938.21038 -347.26758 943.04492 C -347.27136 943.08121 -347.27568 943.1165 -347.2793 943.1543 C -347.41748 944.54308 -347.56617 945.94168 -347.71289 947.33789 L -276.86133 947.33789 C -274.59298 945.74762 -272.536 944.49581 -271 943.94727 C -270.75545 943.83842 -270.54639 943.72163 -270.31641 943.60938 C -270.16889 943.59804 -270.01779 943.58216 -269.875 943.58594 C -268.59329 943.63292 -267.04294 942.45218 -265.35938 940.33984 C -264.78015 941.8481 -264.16782 943.34818 -263.53711 944.8457 C -263.18646 945.67828 -262.82553 946.50895 -262.45898 947.33789 L 143.05078 947.33789 C 143.22758 946.90452 143.41213 946.47499 143.58398 946.03906 C 143.65632 945.85564 143.7292 945.67234 143.80078 945.48828 C 144.23276 944.37846 144.6467 943.25849 145.05078 942.13477 C 145.1729 941.79514 145.29647 941.45615 145.41602 941.11523 C 145.82123 939.96017 146.21168 938.79837 146.58789 937.62891 C 146.68064 937.3406 146.77035 937.05085 146.86133 936.76172 C 147.09044 936.03359 147.3054 935.29806 147.52344 934.56445 C 147.83195 933.5261 148.1296 932.48287 148.41602 931.43359 C 148.57123 930.86508 148.72624 930.2963 148.875 929.72461 C 149.16797 928.59846 149.44485 927.46464 149.71289 926.32617 C 149.83489 925.80796 149.96126 925.29223 150.07812 924.77148 C 150.36394 923.49797 150.6295 922.21441 150.88477 920.92578 C 150.96361 920.52776 151.05102 920.13383 151.12695 919.73438 C 151.43972 918.08911 151.72838 916.4311 151.99219 914.76172 C 152.07212 914.25572 152.13738 913.74257 152.21289 913.23438 C 152.39256 912.02489 152.56819 910.81368 152.72266 909.5918 C 152.80327 908.95408 152.8715 908.31101 152.94531 907.66992 C 153.04298 906.82172 153.14471 905.97515 153.23047 905.12109 C 153.57987 903.04817 153.91862 900.93961 154.23633 898.77148 C 154.21176 896.60789 154.14676 894.48612 154.06641 892.38281 C 154.07548 892.09878 154.08386 891.8139 154.0918 891.5293 C 154.14138 889.75572 154.17268 887.97392 154.17578 886.17773 C 154.17578 884.84269 154.15108 883.51134 154.11328 882.18359 C 154.10119 881.76301 154.0819 881.34366 154.06641 880.92383 C 154.03148 879.99093 153.98891 879.05998 153.93555 878.13086 C 153.90924 877.67157 153.88255 877.21225 153.85156 876.75391 C 153.78278 875.73245 153.70226 874.71388 153.61133 873.69727 C 153.584 873.39097 153.56464 873.08311 153.53516 872.77734 C 153.53471 872.76978 153.53365 872.7655 153.5332 872.76172 C 153.41297 871.51145 153.27255 870.26607 153.11914 869.02344 C 153.0578 868.52556 152.98851 868.0298 152.92188 867.5332 C 152.8159 866.74453 152.70323 865.9573 152.58398 865.17188 C 152.50099 864.62433 152.41747 864.07713 152.32812 863.53125 C 152.2024 862.76419 152.06603 862.00013 151.92773 861.23633 C 151.83098 860.70107 151.7396 860.16449 151.63672 859.63086 C 151.56525 859.26062 151.48458 858.89308 151.41016 858.52344 C 151.26097 857.78284 151.11207 857.04211 150.95117 856.30469 C 150.79577 855.59157 150.62724 854.88197 150.46094 854.17188 C 150.33347 853.62834 150.20606 853.08469 150.07227 852.54297 C 149.90796 851.87698 149.74026 851.21206 149.56641 850.54883 C 149.41858 849.98553 149.264 849.42454 149.10938 848.86328 C 148.42455 846.37556 147.67275 843.90889 146.85547 841.46289 C 146.70171 841.00292 146.54899 840.5424 146.39062 840.08398 C 146.14131 839.36198 145.88571 838.64198 145.625 837.92383 C 145.46178 837.47429 145.29458 837.02611 145.12695 836.57812 C 144.84994 835.83775 144.57226 835.09747 144.2832 834.36133 C 179.67865 826.4541 235.44344 848.86062 254.64453 886.17578 C 263.11613 902.63937 261.18232 925.7478 253.87109 947.33789 L 287.25781 947.33789 C 296.18515 904.85982 288.02803 859.27147 254.64453 836.59375 C 224.05804 815.81606 191.59846 801.33563 165.66992 795.58984 C 160.84646 794.24671 156.93019 793.50688 154.38477 793.5957 C 141.66296 791.96692 131.17105 792.94003 124.22461 796.92188 C 123.81293 796.90902 123.41848 796.8661 123.03906 796.78711 C 122.81324 796.48924 122.57759 796.19708 122.34961 795.90039 C 121.92036 795.34185 121.48773 794.78474 121.05078 794.23047 C 120.69567 793.78002 120.34062 793.33038 119.98047 792.88281 C 119.85998 792.73299 119.73629 792.58484 119.61523 792.43555 C 118.57455 791.15092 117.51153 789.87976 116.42969 788.61914 C 116.18362 788.33239 115.93566 788.04707 115.6875 787.76172 C 114.57678 786.48401 113.44731 785.21689 112.29492 783.96484 C 112.21113 783.87376 112.13086 783.78016 112.04688 783.68945 C 110.7263 782.26056 109.37966 780.84953 108.00586 779.45508 C 107.99792 779.44374 107.99036 779.43725 107.98242 779.42969 C 107.95374 779.40059 107.92326 779.37399 107.89453 779.34375 C 106.62304 778.05535 105.32574 776.78356 104.00977 775.52539 C 103.77259 775.29862 103.53352 775.07329 103.29492 774.84766 C 102.04155 773.66175 100.77078 772.48809 99.478516 771.33008 C 99.36135 771.22501 99.246412 771.11836 99.128906 771.01367 C 96.240002 768.43758 93.253121 765.93577 90.177734 763.50391 C 89.919717 763.29985 89.659704 763.09749 89.400391 762.89453 C 88.09631 761.87364 86.77742 760.86526 85.441406 759.87109 C 85.187588 759.68219 84.936608 759.49058 84.681641 759.30273 C 81.535146 756.98377 78.299542 754.74091 74.984375 752.57422 C 74.710767 752.39552 74.43489 752.21865 74.160156 752.04102 C 72.788154 751.15324 71.403401 750.27895 70.003906 749.41797 C 69.647436 749.19868 69.291817 748.97942 68.933594 748.76172 C 65.575317 746.72236 62.141129 744.7581 58.632812 742.87695 C 58.282416 742.68919 57.928008 742.50664 57.576172 742.32031 C 56.113846 741.54615 54.639372 740.78507 53.152344 740.03906 C 52.803308 739.86403 52.455831 739.68715 52.105469 739.51367 C 51.917407 739.4207 51.731416 739.32502 51.542969 739.23242 C 44.207242 734.83188 34.691464 730.22039 21.5 726.24414 C 12.877583 723.46093 3.9948117 721.32832 -5.046875 719.75195 C -6.6445301 719.41032 -8.2492398 719.08405 -9.8613281 718.77148 C -10.331099 718.6804 -10.798561 718.58453 -11.269531 718.49609 C -13.320656 718.11013 -15.381762 717.74452 -17.455078 717.40625 C -17.881917 717.33671 -18.312478 717.27664 -18.740234 717.20898 C -20.44228 716.93992 -22.150952 716.68582 -23.867188 716.44922 C -24.4801 716.36494 -25.094305 716.28363 -25.708984 716.20312 C -27.341402 715.98985 -28.980437 715.79306 -30.625 715.60938 C -31.144763 715.55155 -31.662646 715.48877 -32.183594 715.43359 C -34.338876 715.20595 -36.50084 714.99801 -38.675781 714.82227 C -38.906707 714.80375 -39.139938 714.79234 -39.371094 714.77344 C -41.273784 714.62452 -43.184643 714.49752 -45.101562 714.38867 C -45.811116 714.34861 -46.522936 714.31527 -47.234375 714.28125 C -48.776883 714.20604 -50.323867 714.14484 -51.875 714.0957 C -52.547461 714.07454 -53.218541 714.04832 -53.892578 714.0332 C -56.074462 713.97953 -58.2612 713.94531 -60.458984 713.94531 z " id="path1947" transform="scale(0.26458333)"/> <g id="g2193" transform="matrix(0.39455223,0.45613342,0.45613342,-0.39455223,-124.3215,256.1305)" style="stroke-width:1.65810096"> <path id="path2189" d="m -10.553202,220.929 c 0,0 -2.198583,-3.95745 0.219859,-5.93617 3.0780171,-1.53901 4.8368841,2.6383 6.595751,3.73759 1.7588668,1.09929 2.5731254,-5.51229 7.0354674,-4.17731 4.431164,1.32566 0.7695836,3.10246 -0.2198585,4.61703 2.7297903,-0.0594 9.1864921,0.11441 9.8936251,4.83688 -8.8014244,3.44331 -7.4273592,-2.61835 -10.5532001,-0.87943 0,0 5.7163173,5.05674 4.1773088,7.03546 C 5.0567423,232.14178 1.7084845,232.97364 0,232.80136 c -3.1103218,-0.31364 -3.4689028,-7.16981 -3.737592,-7.69505 -1.7588669,0.21986 -3.7375922,7.25533 -7.035468,6.59575 -3.297875,-0.65957 -0.439716,-6.15603 -0.439716,-6.15603 -3.643779,1.08769 -6.405563,1.73774 -7.255326,-1.75887 1.539008,-2.61191 6.156033,-3.94757 7.9149,-2.85816 z" style="fill:#fbffe5;fill-rule:evenodd;stroke:none;stroke-width:0.43870583px;stroke-linecap:butt;stroke-linejoin:miter;stroke-opacity:1"/> <path id="path2191" d="m -8.5744759,221.6985 c 0.8433626,2.497 2.6603159,1.59739 4.8368838,1.8688 1.5390085,0 5.9361757,-0.65957 5.4964589,-1.97872 -0.4397167,-1.31915 -8.7943342,-2.52838 -10.3333427,0.10992 z" style="fill:#fbb88d;fill-opacity:1;fill-rule:evenodd;stroke:none;stroke-width:0.43870583px;stroke-linecap:butt;stroke-linejoin:miter;stroke-opacity:1"/> </g> </g> </svg>